<svg width="45" height="45" viewBox="0 0 45 45" fill="none" xmlns="http://www.w3.org/2000/svg">
<path fill-rule="evenodd" clip-rule="evenodd" d="M20.7304 0.0456475C16.1983 0.42371 11.9819 2.09374 8.38322 4.93625C7.54945 5.59474 5.5816 7.56218 4.92298 8.39578C2.31783 11.6926 0.715618 15.4521 0.152106 19.5905C-0.050702 21.0798 -0.050702 23.9119 0.152106 25.4012C0.833886 30.4079 2.97345 34.7558 6.50282 38.3069C7.84305 39.6554 8.52941 40.2283 9.96835 41.2C16.5757 45.6616 25.179 46.237 32.4001 42.7005C38.9315 39.5018 43.527 33.3087 44.714 26.1057C45.603 20.7114 44.3937 14.8864 41.442 10.3457C40.2067 8.44535 38.1828 6.19001 36.5762 4.92366C33.3496 2.38041 29.4118 0.698321 25.4803 0.184053C24.1789 0.0138634 21.9058 -0.052434 20.7304 0.0456475ZM33.6367 15.0459C33.7061 14.4768 33.5622 14.0286 33.2172 13.7383C32.8454 13.4256 32.3277 13.4485 31.3805 13.8195C30.5639 14.1393 20.5952 17.9859 14.2083 20.4456C12.0045 21.2943 10.0475 22.0667 9.85942 22.1621C9.06826 22.5629 8.87585 23.0834 9.36635 23.4961C9.52267 23.6276 10.0575 23.8523 10.6653 24.0418C11.2335 24.2191 12.567 24.6353 13.6285 24.9669C14.69 25.2985 15.6014 25.5448 15.6539 25.5144C15.7064 25.484 18.6715 23.6212 22.2429 21.3749C26.2339 18.8646 28.83 17.2842 28.9796 17.2739C29.1515 17.2621 29.223 17.2988 29.223 17.3989C29.223 17.4768 26.8849 19.6507 24.0273 22.2299C21.1696 24.809 18.8017 26.9462 18.7654 26.9792C18.7289 27.0123 18.6212 28.1664 18.526 29.544C18.4308 30.9216 18.3367 32.2171 18.3169 32.4229C18.2812 32.7933 18.2837 32.797 18.565 32.797C18.9203 32.797 19.3298 32.4996 20.1966 31.6116C20.5598 31.2394 21.1632 30.6572 21.5375 30.3177L22.2178 29.7005L25.0561 31.7937C27.7898 33.8098 28.2597 34.1058 28.7386 34.1135C29.0528 34.1186 29.4982 33.8206 29.6685 33.4914C29.811 33.2159 33.5282 15.9372 33.6367 15.0459Z" fill="white"/>
<path d="M33.2172 13.7383C33.5622 14.0286 33.7061 14.4768 33.6367 15.0459C33.5282 15.9372 29.811 33.2159 29.6685 33.4914C29.4982 33.8206 29.0528 34.1186 28.7386 34.1135C28.2597 34.1058 27.7898 33.8098 25.0561 31.7937L22.2178 29.7005L21.5375 30.3177C21.1632 30.6572 20.5598 31.2394 20.1966 31.6116C19.3298 32.4996 18.9203 32.797 18.565 32.797C18.2837 32.797 18.2812 32.7933 18.3169 32.4229C18.3367 32.2171 18.4308 30.9216 18.526 29.544C18.6212 28.1664 18.7289 27.0123 18.7654 26.9792C18.8017 26.9462 21.1696 24.809 24.0273 22.2299C26.8849 19.6507 29.223 17.4768 29.223 17.3989C29.223 17.2988 29.1515 17.2621 28.9796 17.2739C28.83 17.2842 26.2339 18.8646 22.2429 21.3749C18.6715 23.6212 15.7064 25.484 15.6539 25.5144C15.6014 25.5448 14.69 25.2985 13.6285 24.9669C12.567 24.6353 11.2335 24.2191 10.6653 24.0418C10.0575 23.8523 9.52267 23.6276 9.36635 23.4961C8.87585 23.0834 9.06826 22.5629 9.85942 22.1621C10.0475 22.0667 12.0045 21.2943 14.2083 20.4456C20.5952 17.9859 30.5639 14.1393 31.3805 13.8195C32.3277 13.4485 32.8454 13.4256 33.2172 13.7383Z" fill="white"/>
<path fill-rule="evenodd" clip-rule="evenodd" d="M20.7304 0.0456475C16.1983 0.42371 11.9819 2.09374 8.38322 4.93625C7.54945 5.59474 5.5816 7.56218 4.92298 8.39578C2.31783 11.6926 0.715618 15.4521 0.152106 19.5905C-0.050702 21.0798 -0.050702 23.9119 0.152106 25.4012C0.833886 30.4079 2.97345 34.7558 6.50282 38.3069C7.84305 39.6554 8.52941 40.2283 9.96835 41.2C16.5757 45.6616 25.179 46.237 32.4001 42.7005C38.9315 39.5018 43.527 33.3087 44.714 26.1057C45.603 20.7114 44.3937 14.8864 41.442 10.3457C40.2067 8.44535 38.1828 6.19001 36.5762 4.92366C33.3496 2.38041 29.4118 0.698321 25.4803 0.184053C24.1789 0.0138634 21.9058 -0.052434 20.7304 0.0456475ZM33.2172 13.7383C33.5622 14.0286 33.7061 14.4768 33.6367 15.0459C33.5282 15.9372 29.811 33.2159 29.6685 33.4914C29.4982 33.8206 29.0528 34.1186 28.7386 34.1135C28.2597 34.1058 27.7898 33.8098 25.0561 31.7937L22.2178 29.7005L21.5375 30.3177C21.1632 30.6572 20.5598 31.2394 20.1966 31.6116C19.3298 32.4996 18.9203 32.797 18.565 32.797C18.2837 32.797 18.2812 32.7933 18.3169 32.4229C18.3367 32.2171 18.4308 30.9216 18.526 29.544C18.6212 28.1664 18.7289 27.0123 18.7654 26.9792C18.8017 26.9462 21.1696 24.809 24.0273 22.2299C26.8849 19.6507 29.223 17.4768 29.223 17.3989C29.223 17.2988 29.1515 17.2621 28.9796 17.2739C28.83 17.2842 26.2339 18.8646 22.2429 21.3749C18.6715 23.6212 15.7064 25.484 15.6539 25.5144C15.6014 25.5448 14.69 25.2985 13.6285 24.9669C12.567 24.6353 11.2335 24.2191 10.6653 24.0418C10.0575 23.8523 9.52267 23.6276 9.36635 23.4961C8.87585 23.0834 9.06826 22.5629 9.85942 22.1621C10.0475 22.0667 12.0045 21.2943 14.2083 20.4456C20.5952 17.9859 30.5639 14.1393 31.3805 13.8195C32.3277 13.4485 32.8454 13.4256 33.2172 13.7383Z" fill="#039BE5"/>
</svg>
