<svg width="45" height="45" viewBox="0 0 45 45" fill="none" xmlns="http://www.w3.org/2000/svg">
<path fill-rule="evenodd" clip-rule="evenodd" d="M26.5476 8.64743C28.42 8.88807 29.5634 9.12116 30.2401 9.40015C32.1943 10.2059 34.2408 12.1767 35.1366 14.1153C35.8702 15.7028 36.3067 19.8027 36.0535 22.7264C35.9204 24.263 35.587 26.2549 35.3478 26.9429C34.6245 29.0237 32.3754 31.3156 30.2035 32.1852C28.8193 32.7393 26.4057 33.0539 23.0083 33.1227L20.4807 33.1738L18.9718 34.7487C18.142 35.6149 17.3431 36.3856 17.1967 36.4614C16.6634 36.737 15.9403 36.4902 15.6099 35.9198C15.5474 35.812 15.491 35.1022 15.464 34.0853L15.42 32.4268L14.8834 32.2253C13.7929 31.8157 12.592 30.9746 11.5687 29.9036C9.96786 28.2282 9.41315 26.8826 9.02698 23.7379C8.87894 22.5323 8.87806 19.03 9.02549 17.8448C9.41834 14.6874 9.96821 13.3541 11.5687 11.6791C13.0439 10.1352 14.5423 9.29003 16.3972 8.95554C17.1818 8.81401 18.9057 8.59808 20.1262 8.48831C21.0778 8.40273 25.4956 8.51215 26.5476 8.64743ZM15.8949 11.6352C16.5094 11.4216 18.4381 11.1127 19.9063 10.9928C22.148 10.8097 24.8856 10.9069 27.2886 11.2551C28.7011 11.4596 29.3698 11.6625 30.1092 12.1105C31.2639 12.8102 32.6693 14.4305 33.005 15.449C33.2281 16.1256 33.4952 17.8763 33.602 19.3615C33.7523 21.4522 33.4626 24.7457 33.0066 26.1292C32.5793 27.4254 30.9596 29.0943 29.4411 29.8029C28.5241 30.2308 26.0518 30.5712 23.1204 30.673L21.4669 30.7304L19.1938 33.0613C17.6949 34.5982 16.8598 35.3921 16.7421 35.3921C16.5673 35.3921 16.5631 35.3385 16.5403 32.7867L16.517 30.1813L16.0125 29.9964C14.7782 29.5441 13.3691 28.4032 12.571 27.2101C12.054 26.4371 11.9152 26.0415 11.684 24.6818C11.2122 21.9073 11.2439 19.0893 11.7775 16.3496C12.0298 15.0543 12.3814 14.421 13.4408 13.3539C14.3957 12.3921 15.0639 11.9241 15.8949 11.6352Z" fill="white"/>
<path fill-rule="evenodd" clip-rule="evenodd" d="M8.60273 4.81016C12.1259 2.09724 16.1871 0.483066 20.478 0.0901651C23.013 -0.141951 25.5695 0.0738052 28.1876 0.740777C31.8845 1.68252 35.3261 3.62592 38.1483 6.36523C42.2152 10.3127 44.5309 15.3159 44.9482 21.0568C45.1774 24.2105 44.6393 27.7056 43.4679 30.6726C42.2916 33.6516 40.7023 36.0714 38.4288 38.3444C36.5411 40.2319 34.9938 41.3712 32.7492 42.5264C25.8106 46.0975 17.4236 45.7836 10.768 41.7037C8.72333 40.4503 6.1777 38.1884 4.80307 36.4036C1.93901 32.6849 0.380447 28.5979 0.0485547 23.9358C-0.16177 20.9822 0.318608 17.5987 1.34578 14.7978C1.74013 13.7223 2.81805 11.5125 3.3776 10.6324C4.66365 8.60952 6.88908 6.12968 8.60273 4.81016ZM30.2401 9.40015C29.5634 9.12116 28.42 8.88807 26.5476 8.64743C25.4956 8.51215 21.0778 8.40273 20.1262 8.48831C18.9057 8.59808 17.1818 8.81401 16.3972 8.95554C14.5423 9.29003 13.0439 10.1352 11.5687 11.6791C9.96821 13.3541 9.41834 14.6874 9.02549 17.8448C8.87806 19.03 8.87894 22.5323 9.02698 23.7379C9.41315 26.8826 9.96786 28.2282 11.5687 29.9036C12.592 30.9746 13.7929 31.8157 14.8834 32.2253L15.42 32.4268L15.464 34.0853C15.491 35.1022 15.5474 35.812 15.6099 35.9198C15.9403 36.4902 16.6634 36.737 17.1967 36.4614C17.3431 36.3856 18.142 35.6149 18.9718 34.7487L20.4807 33.1738L23.0083 33.1227C26.4057 33.0539 28.8193 32.7393 30.2035 32.1852C32.3754 31.3156 34.6245 29.0237 35.3478 26.9429C35.587 26.2549 35.9204 24.263 36.0535 22.7264C36.3067 19.8027 35.8702 15.7028 35.1366 14.1153C34.2408 12.1767 32.1943 10.2059 30.2401 9.40015Z" fill="white"/>
<path fill-rule="evenodd" clip-rule="evenodd" d="M19.9063 10.9928C18.4381 11.1127 16.5094 11.4216 15.8949 11.6352C15.0639 11.9241 14.3957 12.3921 13.4408 13.3539C12.3814 14.421 12.0298 15.0543 11.7775 16.3496C11.2439 19.0893 11.2122 21.9073 11.684 24.6818C11.9152 26.0415 12.054 26.4371 12.571 27.2101C13.3691 28.4032 14.7782 29.5441 16.0125 29.9964L16.517 30.1813L16.5403 32.7867C16.5631 35.3385 16.5673 35.3921 16.7421 35.3921C16.8598 35.3921 17.6949 34.5982 19.1938 33.0613L21.4669 30.7304L23.1204 30.673C26.0518 30.5712 28.5241 30.2308 29.4411 29.8029C30.9596 29.0943 32.5793 27.4254 33.0066 26.1292C33.4626 24.7457 33.7523 21.4522 33.602 19.3615C33.4952 17.8763 33.2281 16.1256 33.005 15.449C32.6693 14.4305 31.2639 12.8102 30.1092 12.1105C29.3698 11.6625 28.7011 11.4596 27.2886 11.2551C24.8856 10.9069 22.148 10.8097 19.9063 10.9928ZM28.4891 17.53C27.5895 15.7094 25.9998 14.4596 23.9627 13.9712C23.0757 13.7586 22.2174 13.7434 22.0237 13.937C21.677 14.2837 21.9629 14.5595 22.7423 14.6303C24.4218 14.7828 25.6156 15.315 26.6806 16.3862C27.8027 17.5146 28.2975 18.6608 28.4376 20.456C28.4866 21.0848 28.5378 21.2976 28.668 21.4154C28.8087 21.5427 28.8726 21.55 29.0679 21.461L29.3005 21.3551L29.2425 20.5015C29.1559 19.2265 28.9752 18.5139 28.4891 17.53ZM20.3586 17.6433C20.2762 17.3155 19.1244 15.6309 18.6124 15.0895C18.1894 14.6423 18.1034 14.5905 17.7835 14.5905C16.8775 14.5905 15.3848 16.0869 15.378 17.002C15.3758 17.2965 16.1866 19.2436 16.718 20.2197C17.652 21.9351 18.9257 23.5682 20.1702 24.6458C21.5866 25.8722 24.2679 27.4416 25.8311 27.9588C26.3669 28.1361 26.4082 28.1377 26.8274 27.9985C27.6839 27.714 28.8347 26.3567 28.8347 25.631C28.8347 25.4315 28.7263 25.2693 28.365 24.9286C27.7888 24.3851 26.1109 23.224 25.7537 23.1216C25.321 22.9975 24.9605 23.1646 24.4266 23.7367C23.9634 24.233 23.9084 24.2656 23.5339 24.2656C22.9804 24.2656 21.7426 23.636 21.0318 22.9928C20.4064 22.4269 19.7763 21.5243 19.4141 20.6754C19.0365 19.7903 19.0596 19.6675 19.724 19.0287C20.3071 18.4683 20.4741 18.1036 20.3586 17.6433ZM27.3828 19.0973C26.9855 17.4125 25.7028 16.1377 23.9562 15.6918C23.3266 15.5311 22.7513 15.519 22.6068 15.6635C22.4508 15.8195 22.4786 16.1556 22.6552 16.2482C22.7398 16.2926 23.0989 16.3772 23.453 16.4362C24.6769 16.6401 25.7903 17.4055 26.2912 18.3872C26.5042 18.8047 26.7206 19.7102 26.7222 20.1914C26.7242 20.7434 27.0664 21.0077 27.377 20.6972C27.5541 20.52 27.5566 19.8343 27.3828 19.0973ZM25.7366 19.5334C25.6711 18.6211 25.282 18.0166 24.4996 17.6121C24.1337 17.4229 23.2821 17.3542 23.139 17.5023C22.9794 17.6675 23.0042 18.0018 23.183 18.0937C23.2676 18.1372 23.5032 18.1939 23.7066 18.2198C23.91 18.2456 24.2016 18.3559 24.3547 18.4649C24.659 18.6816 24.9592 19.2505 24.9623 19.6162C24.9634 19.7439 25.0367 19.9378 25.1253 20.0473C25.2529 20.2047 25.3378 20.2333 25.5327 20.1844C25.7774 20.123 25.7786 20.1189 25.7366 19.5334Z" fill="white"/>
<path d="M18.6124 15.0895C19.1244 15.6309 20.2762 17.3155 20.3586 17.6433C20.4741 18.1036 20.3071 18.4683 19.724 19.0287C19.0596 19.6675 19.0365 19.7903 19.4141 20.6754C19.7763 21.5243 20.4064 22.4269 21.0318 22.9928C21.7426 23.636 22.9804 24.2656 23.5339 24.2656C23.9084 24.2656 23.9634 24.233 24.4266 23.7367C24.9605 23.1646 25.321 22.9975 25.7537 23.1216C26.1109 23.224 27.7888 24.3851 28.365 24.9286C28.7263 25.2693 28.8347 25.4315 28.8347 25.631C28.8347 26.3567 27.6839 27.714 26.8274 27.9985C26.4082 28.1377 26.3669 28.1361 25.8311 27.9588C24.2679 27.4416 21.5866 25.8722 20.1702 24.6458C18.9257 23.5682 17.652 21.9351 16.718 20.2197C16.1866 19.2436 15.3758 17.2965 15.378 17.002C15.3848 16.0869 16.8775 14.5905 17.7835 14.5905C18.1034 14.5905 18.1894 14.6423 18.6124 15.0895Z" fill="white"/>
<path d="M23.9562 15.6918C25.7028 16.1377 26.9855 17.4125 27.3828 19.0973C27.5566 19.8343 27.5541 20.52 27.377 20.6972C27.0664 21.0077 26.7242 20.7434 26.7222 20.1914C26.7206 19.7102 26.5042 18.8047 26.2912 18.3872C25.7903 17.4055 24.6769 16.6401 23.453 16.4362C23.0989 16.3772 22.7398 16.2926 22.6552 16.2482C22.4786 16.1556 22.4508 15.8195 22.6068 15.6635C22.7513 15.519 23.3266 15.5311 23.9562 15.6918Z" fill="white"/>
<path d="M23.9627 13.9712C25.9998 14.4596 27.5895 15.7094 28.4891 17.53C28.9752 18.5139 29.1559 19.2265 29.2425 20.5015L29.3005 21.3551L29.0679 21.461C28.8726 21.55 28.8087 21.5427 28.668 21.4154C28.5378 21.2976 28.4866 21.0848 28.4376 20.456C28.2975 18.6608 27.8027 17.5146 26.6806 16.3862C25.6156 15.315 24.4218 14.7828 22.7423 14.6303C21.9629 14.5595 21.677 14.2837 22.0237 13.937C22.2174 13.7434 23.0757 13.7586 23.9627 13.9712Z" fill="white"/>
<path d="M24.4996 17.6121C25.282 18.0166 25.6711 18.6211 25.7366 19.5334C25.7786 20.1189 25.7774 20.123 25.5327 20.1844C25.3378 20.2333 25.2529 20.2047 25.1253 20.0473C25.0367 19.9378 24.9634 19.7439 24.9623 19.6162C24.9592 19.2505 24.659 18.6816 24.3547 18.4649C24.2016 18.3559 23.91 18.2456 23.7066 18.2198C23.5032 18.1939 23.2676 18.1372 23.183 18.0937C23.0042 18.0018 22.9794 17.6675 23.139 17.5023C23.2821 17.3542 24.1337 17.4229 24.4996 17.6121Z" fill="white"/>
<path fill-rule="evenodd" clip-rule="evenodd" d="M20.478 0.0901651C16.1871 0.483066 12.1259 2.09724 8.60273 4.81016C6.88908 6.12968 4.66365 8.60952 3.3776 10.6324C2.81805 11.5125 1.74013 13.7223 1.34578 14.7978C0.318608 17.5987 -0.16177 20.9822 0.0485547 23.9358C0.380447 28.5979 1.93901 32.6849 4.80307 36.4036C6.1777 38.1884 8.72333 40.4503 10.768 41.7037C17.4236 45.7836 25.8106 46.0975 32.7492 42.5264C34.9938 41.3712 36.5411 40.2319 38.4288 38.3444C40.7023 36.0714 42.2916 33.6516 43.4679 30.6726C44.6393 27.7056 45.1774 24.2105 44.9482 21.0568C44.5309 15.3159 42.2152 10.3127 38.1483 6.36523C35.3261 3.62592 31.8845 1.68252 28.1876 0.740777C25.5695 0.0738052 23.013 -0.141951 20.478 0.0901651ZM26.5476 8.64743C28.42 8.88807 29.5634 9.12116 30.2401 9.40015C32.1943 10.2059 34.2408 12.1767 35.1366 14.1153C35.8702 15.7028 36.3067 19.8027 36.0535 22.7264C35.9204 24.263 35.587 26.2549 35.3478 26.9429C34.6245 29.0237 32.3754 31.3156 30.2035 32.1852C28.8193 32.7393 26.4057 33.0539 23.0083 33.1227L20.4807 33.1738L18.9718 34.7487C18.142 35.6149 17.3431 36.3856 17.1967 36.4614C16.6634 36.737 15.9403 36.4902 15.6099 35.9198C15.5474 35.812 15.491 35.1022 15.464 34.0853L15.42 32.4268L14.8834 32.2253C13.7929 31.8157 12.592 30.9746 11.5687 29.9036C9.96786 28.2282 9.41315 26.8826 9.02698 23.7379C8.87894 22.5323 8.87806 19.03 9.02549 17.8448C9.41834 14.6874 9.96821 13.3541 11.5687 11.6791C13.0439 10.1352 14.5423 9.29003 16.3972 8.95554C17.1818 8.81401 18.9057 8.59808 20.1262 8.48831C21.0778 8.40273 25.4956 8.51215 26.5476 8.64743ZM19.9063 10.9928C18.4381 11.1127 16.5094 11.4216 15.8949 11.6352C15.0639 11.9241 14.3957 12.3921 13.4408 13.3539C12.3814 14.421 12.0298 15.0543 11.7775 16.3496C11.2439 19.0893 11.2122 21.9073 11.684 24.6818C11.9152 26.0415 12.054 26.4371 12.571 27.2101C13.3691 28.4032 14.7782 29.5441 16.0125 29.9964L16.517 30.1813L16.5403 32.7867C16.5631 35.3385 16.5673 35.3921 16.7421 35.3921C16.8598 35.3921 17.6949 34.5982 19.1938 33.0613L21.4669 30.7304L23.1204 30.673C26.0518 30.5712 28.5241 30.2308 29.4411 29.8029C30.9596 29.0943 32.5793 27.4254 33.0066 26.1292C33.4626 24.7457 33.7523 21.4522 33.602 19.3615C33.4952 17.8763 33.2281 16.1256 33.005 15.449C32.6693 14.4305 31.2639 12.8102 30.1092 12.1105C29.3698 11.6625 28.7011 11.4596 27.2886 11.2551C24.8856 10.9069 22.148 10.8097 19.9063 10.9928ZM23.9627 13.9712C25.9998 14.4596 27.5895 15.7094 28.4891 17.53C28.9752 18.5139 29.1559 19.2265 29.2425 20.5015L29.3005 21.3551L29.0679 21.461C28.8726 21.55 28.8087 21.5427 28.668 21.4154C28.5378 21.2976 28.4866 21.0848 28.4376 20.456C28.2975 18.6608 27.8027 17.5146 26.6806 16.3862C25.6156 15.315 24.4218 14.7828 22.7423 14.6303C21.9629 14.5595 21.677 14.2837 22.0237 13.937C22.2174 13.7434 23.0757 13.7586 23.9627 13.9712ZM18.6124 15.0895C19.1244 15.6309 20.2762 17.3155 20.3586 17.6433C20.4741 18.1036 20.3071 18.4683 19.724 19.0287C19.0596 19.6675 19.0365 19.7903 19.4141 20.6754C19.7763 21.5243 20.4064 22.4269 21.0318 22.9928C21.7426 23.636 22.9804 24.2656 23.5339 24.2656C23.9084 24.2656 23.9634 24.233 24.4266 23.7367C24.9605 23.1646 25.321 22.9975 25.7537 23.1216C26.1109 23.224 27.7888 24.3851 28.365 24.9286C28.7263 25.2693 28.8347 25.4315 28.8347 25.631C28.8347 26.3567 27.6839 27.714 26.8274 27.9985C26.4082 28.1377 26.3669 28.1361 25.8311 27.9588C24.2679 27.4416 21.5866 25.8722 20.1702 24.6458C18.9257 23.5682 17.652 21.9351 16.718 20.2197C16.1866 19.2436 15.3758 17.2965 15.378 17.002C15.3848 16.0869 16.8775 14.5905 17.7835 14.5905C18.1034 14.5905 18.1894 14.6423 18.6124 15.0895ZM23.9562 15.6918C25.7028 16.1377 26.9855 17.4125 27.3828 19.0973C27.5566 19.8343 27.5541 20.52 27.377 20.6972C27.0664 21.0077 26.7242 20.7434 26.7222 20.1914C26.7206 19.7102 26.5042 18.8047 26.2912 18.3872C25.7903 17.4055 24.6769 16.6401 23.453 16.4362C23.0989 16.3772 22.7398 16.2926 22.6552 16.2482C22.4786 16.1556 22.4508 15.8195 22.6068 15.6635C22.7513 15.519 23.3266 15.5311 23.9562 15.6918ZM24.4996 17.6121C25.282 18.0166 25.6711 18.6211 25.7366 19.5334C25.7786 20.1189 25.7774 20.123 25.5327 20.1844C25.3378 20.2333 25.2529 20.2047 25.1253 20.0473C25.0367 19.9378 24.9634 19.7439 24.9623 19.6162C24.9592 19.2505 24.659 18.6816 24.3547 18.4649C24.2016 18.3559 23.91 18.2456 23.7066 18.2198C23.5032 18.1939 23.2676 18.1372 23.183 18.0937C23.0042 18.0018 22.9794 17.6675 23.139 17.5023C23.2821 17.3542 24.1337 17.4229 24.4996 17.6121Z" fill="#6F3FAA"/>
</svg>
