<svg width="108" height="97" viewBox="0 0 108 97" fill="none" xmlns="http://www.w3.org/2000/svg">
<path fill-rule="evenodd" clip-rule="evenodd" d="M37.9379 1.8535C37.0761 2.87303 33.0352 7.71055 28.9581 12.6038C21.0718 22.0687 21.1172 22.0003 21.8817 23.2685C22.3935 24.1175 39.3783 36.6539 40.1973 36.7872C40.6691 36.8641 41.0246 36.7726 41.3959 36.479C41.6863 36.2493 44.3884 32.7137 47.4008 28.6222C50.413 24.5306 52.9316 21.1835 52.9977 21.1843C53.1468 21.186 58.3564 30.5122 58.258 30.6011C58.2187 30.6367 57.4096 31.0557 56.46 31.5321C54.6058 32.4625 54.0681 33.0058 54.0681 33.9493C54.0681 35.2237 54.3101 35.3118 64.8931 37.8885C70.8064 39.3283 74.9583 40.2406 75.2421 40.1627C75.5029 40.0911 75.877 39.9078 76.0734 39.7551C76.4118 39.4924 85.9077 24.4143 86.6839 22.9075C87.1018 22.0964 86.9994 21.3781 86.377 20.7539C85.8038 20.179 84.9961 20.2288 83.1185 20.9538L81.5176 21.5722L81.2304 21.0068C81.0724 20.6958 78.9728 16.0566 76.5647 10.6973C74.1565 5.33807 71.9898 0.738857 71.7496 0.476614L71.3131 0H55.409H39.5048L37.9379 1.8535ZM74.0646 14.0866C76.6798 19.9119 78.9688 24.8462 79.1515 25.0519C79.3342 25.2576 79.7372 25.4959 80.0468 25.5814L80.6098 25.7371L77.3185 31.09C74.0621 36.3853 74.0201 36.4417 73.3932 36.3319C73.0447 36.2712 70.1743 35.5912 67.0147 34.8212L61.2695 33.421L62.0265 32.705C62.6789 32.0878 62.7674 31.8916 62.6685 31.2809C62.6056 30.8911 61.0106 27.8162 59.1241 24.4477C55.9852 18.8426 47.732 3.63815 47.732 3.46064C47.732 3.41933 52.5872 3.41001 58.5211 3.4403L69.3102 3.49517L74.0646 14.0866ZM47.4486 10.4855C49.4535 14.2137 51.098 17.39 51.1026 17.544C51.1144 17.9291 40.1325 32.318 39.8814 32.2464C39.7705 32.2149 36.5954 29.8911 32.8257 27.0823C26.8178 22.6061 26.0044 21.9331 26.2389 21.6325C26.3859 21.4438 29.8192 17.3053 33.8684 12.4358L41.2307 3.58202L42.517 3.64451L43.803 3.707L47.4486 10.4855ZM85.115 42.1178C79.9458 45.0053 75.5006 47.5053 75.237 47.6734C74.9733 47.8416 74.6687 48.3009 74.5603 48.6938C74.3204 49.5636 74.049 49.0037 79.4958 58.8703C81.7736 62.9965 83.6134 66.3931 83.584 66.4186C83.5291 66.4664 73.385 67.3642 72.918 67.3625C72.7252 67.3616 72.654 66.8145 72.654 65.3351C72.654 64.2206 72.5514 63.1164 72.4259 62.8812C72.1051 62.2803 70.8987 61.8081 70.2881 62.0445C69.6121 62.3065 69.5863 62.3373 62.9579 70.8513C57.7403 77.5531 57.025 78.562 57.025 79.2206C57.025 79.8483 57.8976 81.2701 62.4248 88.0168C65.3945 92.4427 68.061 96.2785 68.3501 96.5408C68.9852 97.1165 69.9033 97.1551 70.5462 96.6329C71.0506 96.2232 71.3515 94.9599 71.3741 93.1568L71.3868 92.1559L82.9973 92.0977C94.3681 92.0407 94.6167 92.0305 95.0391 91.6066C95.7346 90.9089 107.992 63.5733 108 62.7012C108.009 61.745 96.588 38.059 95.7686 37.3347C95.472 37.0725 95.0682 36.8602 94.8714 36.863C94.6745 36.8655 90.2842 39.2304 85.115 42.1178ZM18.6915 37.8241C15.0905 37.9706 11.5934 38.0994 10.9203 38.11C9.4522 38.1329 8.65935 38.7354 8.65935 39.828C8.65935 40.8026 8.89779 41.1102 10.5262 42.2362L12.0057 43.2594L9.73416 46.996C1.52531 60.5007 0 63.1054 0 63.618C0 63.9834 1.1103 65.8151 3.26098 68.9971C5.05452 71.6509 9.10794 77.6827 12.2688 82.4012C15.4297 87.1197 18.2569 91.2425 18.5515 91.5628L19.0873 92.1453H33.0561H47.0247L47.5368 91.5988L48.0488 91.0523L48.1073 80.4005C48.1434 73.7934 48.0868 69.5409 47.9582 69.2016C47.5174 68.0384 47.4735 68.0318 37.2802 67.5734C32.0694 67.339 27.7695 67.1104 27.7245 67.0655C27.6582 66.9988 32.2113 57.6762 32.4246 57.4419C32.4594 57.4038 33.2329 57.802 34.1434 58.3271C35.0541 58.8523 36.0366 59.3384 36.327 59.4075C37.0246 59.5733 38.1744 58.8582 38.3522 58.1475C38.5411 57.3923 31.3971 38.2507 30.7588 37.8022C30.2306 37.4313 28.2388 37.4349 18.6915 37.8241ZM30.8281 47.0788C32.037 50.3702 33.0658 53.1814 33.1144 53.3261C33.1794 53.5195 33.0003 53.5044 32.439 53.2693C30.9641 52.6512 30.7544 52.909 27.6493 59.1598C24.5423 65.4141 16.2135 81.3404 16.0515 81.337C15.9934 81.3357 13.2537 77.3307 9.96289 72.4368L3.98013 63.539L10.1528 53.5349C16.3098 43.5559 16.6462 42.9086 16.1866 41.9174C16.0445 41.6107 16.5184 41.5537 20.7389 41.3713C23.33 41.2593 26.1656 41.1513 27.0402 41.1311L28.6303 41.0947L30.8281 47.0788ZM99.2773 52.1163L104.504 62.7984L103.988 63.8188C103.705 64.3801 103.358 64.8756 103.217 64.9197C102.593 65.1162 87.5635 66.0864 87.4372 65.9381C87.2247 65.6888 78.7717 50.1919 78.7189 49.9551C78.667 49.7212 93.5672 41.2726 93.8597 41.3703C93.9647 41.4054 96.4026 46.2411 99.2773 52.1163ZM69.6665 70.4833C69.8064 70.7441 70.1749 71.0216 70.4858 71.0998C70.7967 71.1781 74.9996 70.8943 79.8254 70.4694C89.8223 69.5888 101.562 68.747 101.715 68.8997C101.771 68.9563 99.8412 73.397 97.4261 78.7679L93.0352 88.5334L81.3556 88.5387C69.0429 88.5444 68.7951 88.5627 68.2726 89.4992C68.1402 89.7366 67.1855 88.4623 64.5594 84.543L61.0245 79.2674L65.0944 74.0327C68.895 69.1444 69.1723 68.8383 69.2883 69.4039C69.3567 69.7368 69.5269 70.2226 69.6665 70.4833ZM35.1654 71.1733C38.0694 71.2891 41.3245 71.4412 42.3991 71.5109L44.3527 71.6376V80.0908V88.5442H32.5207H20.6884L19.537 86.7725L18.3855 85.0008L22.1086 77.8552L25.8317 70.7096L27.8586 70.836C28.9733 70.9055 32.2613 71.0572 35.1654 71.1733Z" fill="black"/>
</svg>
