<svg width="112" height="90" viewBox="0 0 112 90" fill="none" xmlns="http://www.w3.org/2000/svg">
<path fill-rule="evenodd" clip-rule="evenodd" d="M10.4495 0.362858C10.121 0.559111 9.77723 0.865097 9.68547 1.04299C9.5935 1.22088 9.46802 3.07579 9.40648 5.16494L9.29458 8.96339L5.35279 9.07122C3.18481 9.13052 1.25093 9.25481 1.05537 9.34745C0.859813 9.43988 0.525638 9.82732 0.312781 10.2082C-0.182351 11.0941 0.00685486 12.191 0.774846 12.8863L1.33655 13.3949L19.8783 13.5065C38.0151 13.6156 38.4566 13.6281 40.0944 14.0725C44.2037 15.188 47.1121 16.8382 50.0264 19.7077C52.8099 22.4487 54.5682 25.4904 55.5433 29.2528C56.0626 31.2567 56.0626 36.2609 55.5433 38.2648C54.5268 42.1867 52.8034 45.1103 49.8045 48.0002C47.485 50.2352 45.4254 51.5659 42.662 52.6149C39.1808 53.9366 40.1325 53.8785 19.8426 54.006L1.26538 54.1227L0.626372 54.8119C-0.574121 56.107 0.0265638 58.0018 1.78416 58.4633C2.48887 58.6483 10.5846 58.6908 34.0402 58.6323L65.3555 58.5542V67.5228V76.4913H58.2625H51.1697L50.9071 75.6472C49.8378 72.2096 47.1489 69.4534 43.681 68.2405C39.4008 66.7435 34.7375 67.7541 31.5057 70.8789C29.9152 72.4169 28.5831 74.6873 28.3345 76.2839C28.1466 77.4916 27.8895 77.4916 27.7016 76.2839C27.2972 73.6849 24.4665 70.1507 21.7195 68.8143C15.128 65.6079 7.22054 68.8647 5.12877 75.6472L4.86839 76.4913L3.1397 76.6089C1.0534 76.7505 0.809008 76.848 0.312781 77.7362C-0.182351 78.6221 0.00685486 79.719 0.774846 80.4143C1.25728 80.8509 1.5943 80.9332 3.16006 80.9965L4.98358 81.0702L5.12045 81.7731C5.3863 83.1378 6.73088 85.3443 8.08073 86.63C10.5273 88.9604 12.9983 89.9435 16.4117 89.944C20.3835 89.9444 23.8249 88.1969 25.962 85.0942C26.8585 83.7926 27.7991 81.5439 27.7991 80.7023C27.7991 80.4174 27.8976 80.1843 28.0181 80.1843C28.1385 80.1843 28.237 80.4174 28.237 80.7023C28.237 81.5439 29.1776 83.7926 30.0741 85.0942C31.2177 86.7543 32.6249 87.9017 34.6972 88.8629C38.3129 90.5401 42.2584 90.3569 45.8185 88.3465C48.0191 87.1038 50.5029 83.893 50.9196 81.7522L51.0606 81.0284H63.0562H75.0517L75.1927 81.7522C75.6234 83.9646 78.1412 87.1403 80.5185 88.4695C84.0703 90.4555 88.5959 90.4793 92.21 88.5309C94.5598 87.2644 96.5771 84.8908 97.4482 82.368L97.8983 81.0649L102.431 80.994L106.963 80.9229L108.343 80.2018C109.876 79.4009 110.536 78.7438 111.41 77.147L112 76.0693V61.192V46.3148L105.927 33.6533C99.9953 21.2858 99.8265 20.9667 98.6645 19.9099C96.5263 17.9655 97.2947 18.0529 81.6701 17.9752C72.2915 17.9286 67.7285 17.979 67.174 18.1356C66.7288 18.2614 66.1621 18.6121 65.9148 18.9151C65.4694 19.4606 65.465 19.6351 65.465 36.7416V54.0172L57.6362 54.0104L49.8074 54.0039L50.4643 53.5443C51.7986 52.6107 54.3956 50.0668 55.6014 48.5126C60.5308 42.1572 61.9875 33.5784 59.4135 26.0617C57.3119 19.9242 52.6805 14.7096 46.7229 11.7725C43.0135 9.94402 40.3136 9.2757 35.9016 9.09401L32.7263 8.96339L32.6144 5.16494C32.5529 3.07579 32.4178 1.19683 32.3142 0.989389C31.8326 0.025428 31.4787 -0.00559203 20.9666 0.000527687C12.0392 0.00559228 10.9867 0.0416781 10.4495 0.362858ZM28.0181 6.64211V8.85787H21.0104H14.0028V6.64211V4.42635H21.0104H28.0181V6.64211ZM79.5293 33.6005L79.5898 44.6266L80.1204 45.6655C80.8286 47.0523 82.1018 48.2406 83.6086 48.9214L84.8455 49.4802L96.1781 49.5418L107.511 49.6034V62.0659C107.511 75.8954 107.54 75.6019 106.092 76.2641C105.518 76.5266 104.577 76.5968 101.635 76.5968H97.9064L97.5691 75.489C96.7681 72.8577 94.3117 70.0382 91.7237 68.7792C85.2057 65.6086 77.2902 68.8995 75.2043 75.6472L74.9435 76.4913L72.5035 76.5511L70.0638 76.6108V49.5926V22.5745H74.7663H79.4689L79.5293 33.6005ZM95.4366 23.1548C95.801 23.5112 97.9497 27.7803 101.004 34.2165C103.74 39.9813 105.978 44.753 105.978 44.8205C105.978 44.8878 101.386 44.9431 95.773 44.9431H85.5681L84.8236 44.2256L84.079 43.5082V33.0413V22.5745H89.4611H94.8432L95.4366 23.1548ZM10.8008 31.7408C9.90008 32.1185 9.40407 32.8351 9.40407 33.7588C9.40407 34.7008 9.90731 35.4067 10.8492 35.7859C11.9426 36.2261 39.5077 36.2208 40.6024 35.7802C41.3726 35.47 42.0333 34.5369 42.0333 33.7588C42.0333 32.9808 41.3726 32.0476 40.6024 31.7374C39.5246 31.3035 11.8362 31.3067 10.8008 31.7408ZM10.4609 40.8729C9.2245 41.6121 9.01646 43.336 10.0442 44.3263L10.6843 44.9431H21.0104H31.3366L31.9767 44.3263C33.0338 43.3077 32.7252 41.3373 31.4185 40.7638C30.9998 40.5798 28.1646 40.5131 20.9454 40.5173C12.1127 40.5222 10.9834 40.5606 10.4609 40.8729ZM19.4039 72.8058C24.6095 75.2518 24.5782 82.3639 19.3512 84.8431C18.4498 85.2706 17.9499 85.3537 16.3022 85.3508C14.6677 85.3478 14.1631 85.2628 13.3459 84.8536C10.9552 83.6563 9.60926 81.6754 9.45619 79.1292C9.334 77.0932 9.90205 75.5331 11.2541 74.1926C13.5305 71.9355 16.4829 71.4333 19.4039 72.8058ZM42.6112 72.6792C44.0105 73.2966 45.2956 74.5111 45.9919 75.8745C46.4356 76.7433 46.5219 77.2242 46.5184 78.8126C46.5147 80.4548 46.4358 80.8547 45.935 81.767C45.2408 83.0321 44.0324 84.1813 42.6903 84.8536C41.873 85.2628 41.3685 85.3478 39.7339 85.3508C37.4339 85.355 36.1907 84.8943 34.7465 83.5026C31.5937 80.4645 32.2605 75.2218 36.0735 73.0685C38.2205 71.8562 40.4452 71.7237 42.6112 72.6792ZM89.4801 72.8058C93.7228 74.7993 94.6921 80.2974 91.3658 83.5026C89.9216 84.8943 88.6784 85.355 86.3784 85.3508C84.7439 85.3478 84.2393 85.2628 83.4221 84.8536C81.0314 83.6563 79.6855 81.6754 79.5324 79.1292C79.4102 77.0932 79.9782 75.5331 81.3303 74.1926C83.6067 71.9355 86.5591 71.4333 89.4801 72.8058Z" fill="black"/>
</svg>
