<svg width="61" height="82" viewBox="0 0 61 82" fill="none" xmlns="http://www.w3.org/2000/svg">
<path fill-rule="evenodd" clip-rule="evenodd" d="M11.4659 0.324356C11.0784 0.517652 10.6992 0.885987 10.4908 1.27178C10.173 1.85999 10.1492 2.21808 10.1428 6.51367L10.1358 11.1243L5.2904 16.2489C2.6256 19.0675 0.337951 21.6085 0.207034 21.8955C0.00591095 22.3367 -0.0239356 25.8391 0.0143897 44.5561C0.0576329 65.729 0.0735738 66.7296 0.376615 67.493C0.550945 67.9321 0.950647 68.6707 1.26488 69.1345L1.83603 69.9778L1.26488 70.8212C-1.64343 75.1145 0.808368 80.7486 6.04571 81.8072C7.30875 82.0624 53.6703 82.0652 54.9532 81.8101C60.1741 80.7718 62.6381 75.1083 59.7341 70.8212L59.1629 69.9778L59.7341 69.1345C61.029 67.2229 60.9338 68.7266 60.9854 49.3623C61.0242 34.753 60.9939 31.9472 60.7929 31.506C60.4953 30.8526 40.0011 10.2672 39.266 9.88314C38.7964 9.63779 38.2161 9.60288 34.6145 9.60288H30.4995V5.75298C30.4995 2.21055 30.4722 1.85263 30.1581 1.27114C29.9383 0.864207 29.5781 0.524057 29.1472 0.316509C28.5032 0.00630615 28.1696 -0.00554464 20.289 0.00118148C12.471 0.0079076 12.0713 0.022641 11.4659 0.324356ZM25.412 7.2007V9.60288H20.3246H15.2372V7.2007V4.79851H20.3246H25.412V7.2007ZM46.4881 23.8936L55.9366 33.38V45.8522V58.3245L55.4703 58.2279C55.2139 58.1749 54.5427 58.0854 53.979 58.0292C53.1262 57.944 52.8347 57.9844 52.243 58.2693C51.4482 58.6522 50.8492 59.5546 50.8492 60.3691C50.8492 61.5876 52.1026 62.7713 53.3929 62.7713C54.689 62.7713 55.9366 63.9552 55.9366 65.1853C55.9366 66.3778 54.6492 67.5721 53.3573 67.5782C52.0829 67.5843 50.8492 68.7646 50.8492 69.9778C50.8492 71.1911 52.0829 72.3714 53.3573 72.3775C54.6861 72.3837 55.9366 73.5494 55.9366 74.7822C55.9366 75.5769 55.3368 76.4995 54.5844 76.862C53.9232 77.1806 53.6327 77.1844 30.4869 77.1844H7.05862L6.38216 76.8253C5.62701 76.4245 5.06231 75.5504 5.06231 74.7822C5.06231 73.5984 6.34604 72.38 7.59348 72.38C8.89603 72.38 10.1497 71.2018 10.1497 69.9778C10.1497 68.7538 8.89603 67.5757 7.59348 67.5757C6.34604 67.5757 5.06231 66.3573 5.06231 65.1735C5.06231 63.9897 6.34604 62.7713 7.59348 62.7713C8.89603 62.7713 10.1497 61.5931 10.1497 60.3691C10.1497 59.5546 9.55078 58.6522 8.75595 58.2693C8.16429 57.9844 7.87278 57.944 7.01995 58.0292C6.45627 58.0854 5.78523 58.1749 5.52866 58.2279L5.06231 58.3245V41.0308V23.737L9.42902 19.0795L13.7957 14.422L25.4176 14.4146L37.0395 14.4073L46.4881 23.8936ZM29.6324 19.4338C25.8368 20.4718 23.3799 23.9977 24.0121 27.4992C24.412 29.7135 24.865 30.2783 31.8251 37.2388C35.3056 40.7194 38.4615 43.778 38.8381 44.0357C40.4768 45.1568 43.233 45.6115 45.1771 45.0816C47.869 44.3478 49.9079 42.4161 50.586 39.9569C51.3108 37.3286 50.5628 35.0451 48.1871 32.6331C41.9492 26.2998 36.4377 20.8803 35.8399 20.4918C34.6239 19.7018 33.4403 19.341 31.8561 19.2776C30.9741 19.2422 30.1111 19.3028 29.6324 19.4338ZM32.6594 24.2963C32.9586 24.4505 35.95 27.3344 39.3072 30.7053C45.7787 37.2032 45.9397 37.4034 45.6921 38.6493C45.5379 39.426 44.6407 40.2947 43.8475 40.4351C42.8083 40.6193 42.0564 40.3935 41.2621 39.659C38.8193 37.4 29.4162 27.7501 29.2152 27.2956C28.8885 26.5574 28.9102 26.162 29.3211 25.3604C29.9163 24.199 31.4947 23.6959 32.6594 24.2963ZM29.2912 48.6791C28.8388 48.9049 28.349 49.4635 27.4373 50.794C24.651 54.8599 22.8683 58.557 22.8683 60.2696C22.8683 62.2034 23.6776 64.03 25.1502 65.4207C28.7602 68.8301 34.828 67.9989 37.1562 63.7762C38.1827 61.914 38.3682 60.3459 37.7798 58.5042C36.901 55.754 32.9789 49.3916 31.7491 48.721C30.9497 48.2853 30.1091 48.2709 29.2912 48.6791ZM31.8246 57.5023C32.4135 58.5977 32.9369 59.7866 32.9877 60.1441C33.1749 61.4624 31.929 62.7713 30.4869 62.7713C29.2822 62.7713 27.9558 61.5561 27.9558 60.4524C27.9558 59.581 30.1666 55.3267 30.5559 55.4488C30.6648 55.4827 31.2356 56.4069 31.8246 57.5023Z" fill="black"/>
</svg>
