<?xml version="1.0" standalone="no"?>
<!DOCTYPE svg PUBLIC "-//W3C//DTD SVG 20010904//EN"
 "http://www.w3.org/TR/2001/REC-SVG-20010904/DTD/svg10.dtd">
<svg version="1.0" xmlns="http://www.w3.org/2000/svg"
 width="260.000000pt" height="260.000000pt" viewBox="0 0 260.000000 260.000000"
 preserveAspectRatio="xMidYMid meet">
<metadata>
Created by potrace 1.14, written by Peter Selinger 2001-2017
</metadata>
<g transform="translate(0.000000,260.000000) scale(0.100000,-0.100000)"
fill="#000000" stroke="none">
<path d="M1369 2363 c-13 -16 -12 -17 4 -4 21 17 22 8 1 -13 -9 -9 -11 -16 -4
-16 6 0 8 -4 5 -10 -4 -6 1 -7 10 -3 10 3 21 0 26 -8 7 -11 9 -11 9 4 0 9 8
17 18 17 13 0 14 2 4 9 -7 4 -12 14 -10 22 5 22 -46 23 -63 2z"/>
<path d="M1199 2303 c0 -11 -3 -13 -6 -5 -2 6 -9 12 -14 12 -6 0 -7 -4 -4 -10
3 -5 1 -10 -5 -10 -7 0 -9 -7 -6 -16 4 -11 2 -15 -7 -11 -22 8 -15 -30 8 -48
11 -9 14 -14 8 -10 -7 3 -13 1 -13 -4 0 -15 13 -14 29 2 8 6 11 7 8 2 -3 -6 3
-16 13 -23 16 -10 18 -9 13 5 -4 11 -3 14 5 9 7 -4 12 -2 12 6 0 11 2 10 9 0
7 -11 9 -11 14 1 3 8 0 20 -6 26 -9 9 -8 11 4 6 10 -4 20 -1 25 6 5 8 3 10 -6
4 -10 -6 -12 -3 -8 13 4 12 1 25 -4 29 -7 3 -8 1 -4 -5 12 -20 -4 -13 -30 13
-30 30 -34 31 -35 8z"/>
<path d="M1202 2103 c-6 -3 -10 -8 -8 -12 3 -4 -1 -8 -9 -8 -8 0 -12 4 -9 9 3
4 0 8 -5 8 -6 0 -11 -4 -11 -10 0 -5 -6 -9 -12 -7 -9 1 -14 -13 -16 -41 -2
-29 -7 -41 -15 -36 -7 3 -3 -2 7 -10 11 -9 15 -16 9 -16 -12 0 -12 -18 0 -37
6 -9 2 -13 -10 -13 -13 0 -15 -3 -5 -8 8 -5 10 -16 6 -27 -5 -12 -4 -16 4 -11
11 7 1 -40 -14 -66 -6 -10 -4 -10 8 0 14 12 16 10 11 -10 -3 -13 -11 -29 -17
-37 -9 -12 -8 -13 6 -9 14 6 15 2 8 -22 -6 -20 -5 -30 3 -34 7 -2 3 -5 -8 -5
-16 -1 -17 -3 -6 -10 12 -7 12 -13 3 -24 -7 -7 -8 -18 -4 -22 4 -5 1 -5 -6 -1
-7 4 -9 13 -5 19 4 7 0 6 -10 -2 -11 -8 -17 -9 -17 -3 0 6 -7 9 -15 6 -8 -4
-12 -11 -8 -18 3 -6 -3 -3 -14 7 -16 14 -22 15 -31 4 -6 -7 -8 -24 -5 -37 5
-18 3 -21 -8 -15 -11 7 -11 5 1 -11 21 -27 33 -34 47 -29 17 6 24 -8 12 -25
-6 -10 -9 -11 -9 -2 0 6 -4 12 -10 12 -5 0 -7 -7 -4 -15 5 -11 2 -13 -10 -9
-9 4 -16 1 -16 -6 0 -7 -7 -10 -15 -6 -10 3 -15 -1 -16 -12 0 -10 -3 -12 -6
-4 -2 6 -9 12 -14 12 -6 0 -8 -3 -6 -7 2 -5 -10 -19 -27 -33 -17 -13 -26 -18
-21 -9 6 8 2 7 -7 -4 -10 -10 -22 -16 -28 -12 -5 3 -7 0 -4 -8 3 -8 0 -18 -7
-23 -8 -4 -10 -3 -5 4 5 8 2 10 -8 6 -9 -3 -13 -10 -10 -15 3 -5 0 -9 -5 -9
-6 0 -11 -6 -11 -14 0 -8 -4 -18 -10 -21 -6 -3 -8 2 -5 12 3 10 0 6 -7 -8 -7
-15 -16 -26 -20 -25 -13 2 -39 -44 -32 -56 4 -6 3 -9 -2 -6 -5 3 -18 -4 -29
-15 -11 -11 -14 -17 -7 -13 6 4 12 2 12 -3 0 -6 -5 -11 -11 -11 -5 0 -8 -4 -4
-9 3 -6 -3 -14 -12 -20 -10 -6 -14 -11 -9 -11 6 0 1 -7 -10 -16 -10 -8 -13
-12 -5 -8 9 4 12 2 9 -7 -3 -8 -14 -13 -24 -11 -18 3 -18 3 1 -12 19 -14 19
-15 2 -22 -15 -5 -16 -9 -5 -15 10 -6 8 -9 -7 -9 -16 0 -17 -2 -5 -10 12 -8
12 -11 -2 -27 -10 -12 -16 -40 -17 -84 l-2 -67 36 -4 c19 -2 35 -1 35 2 0 4
20 4 45 0 29 -4 46 -3 49 4 3 7 5 6 5 -2 1 -7 5 -10 11 -7 5 3 9 -13 8 -39 0
-29 -4 -43 -11 -39 -6 3 -7 1 -3 -6 4 -6 12 -9 17 -6 5 4 9 1 9 -5 0 -6 4 -9
8 -6 5 3 9 -1 9 -9 0 -8 -4 -12 -8 -10 -4 3 -10 -2 -13 -11 -3 -8 -2 -13 3
-10 5 3 12 -1 15 -10 3 -8 2 -13 -3 -9 -5 3 -12 -1 -14 -7 -4 -10 -6 -10 -6 0
-1 6 -6 12 -12 12 -5 0 -7 -4 -4 -10 3 -5 1 -10 -4 -10 -6 0 -11 5 -11 10 0 7
-7 7 -21 -1 -12 -6 -19 -7 -16 -2 4 5 0 10 -8 10 -8 0 -12 -4 -9 -9 3 -4 1 -8
-5 -8 -5 0 -12 8 -14 17 -4 15 -5 15 -6 -2 -1 -17 -3 -18 -11 -5 -9 13 -10 13
-10 0 0 -13 -1 -13 -10 0 -8 13 -12 12 -27 -4 -16 -18 -16 -19 0 -7 21 17 22
8 1 -13 -8 -9 -11 -16 -5 -16 6 0 11 -9 11 -21 0 -11 -4 -17 -10 -14 -5 3 -10
1 -10 -4 0 -6 5 -11 10 -11 14 0 12 -27 -2 -33 -10 -4 -10 -6 0 -6 6 -1 12 -8
12 -16 0 -8 -6 -15 -12 -15 -9 0 -10 -3 -2 -8 13 -9 17 -75 3 -67 -5 4 -9 1
-9 -4 0 -6 5 -11 10 -11 6 0 10 -7 10 -15 0 -8 -5 -15 -11 -15 -6 0 -3 -7 5
-16 21 -20 21 -30 0 -14 -12 11 -15 11 -12 -1 2 -8 8 -17 13 -21 6 -5 5 -8 -3
-8 -10 0 -10 -3 1 -15 9 -8 13 -24 10 -36 -4 -16 -8 -17 -14 -7 -6 9 -9 9 -9
1 0 -20 17 -24 33 -9 8 8 18 12 22 8 5 -4 5 -1 1 6 -4 7 -1 15 8 18 9 3 14 10
11 14 -3 4 3 11 12 14 11 4 13 10 7 14 -6 4 -3 14 10 26 19 19 19 19 13 0 -7
-18 -7 -18 7 -1 8 11 12 26 9 35 -4 14 -3 14 5 3 5 -7 14 -11 20 -7 6 3 14 1
18 -5 4 -8 3 -9 -4 -5 -7 4 -12 3 -12 -3 0 -5 9 -13 20 -16 11 -3 20 -13 20
-20 0 -9 6 -12 17 -8 9 4 14 2 10 -3 -3 -5 8 -16 24 -23 16 -7 29 -19 29 -27
0 -8 6 -11 17 -7 12 5 15 2 11 -8 -4 -11 0 -15 16 -15 11 1 20 -4 19 -10 -1
-7 5 -10 15 -7 10 2 30 -7 46 -22 16 -15 26 -20 23 -11 -4 10 -1 13 8 9 8 -3
12 -10 9 -15 -4 -6 2 -7 16 -3 17 5 21 4 15 -6 -6 -9 -3 -11 8 -6 10 4 17 1
17 -6 0 -8 4 -6 10 3 7 11 10 11 10 2 0 -9 5 -10 19 -3 10 6 21 8 23 5 3 -3
18 -7 34 -10 16 -3 31 -8 34 -11 3 -3 -6 -3 -18 0 -13 3 -21 3 -17 -1 10 -10
164 -9 162 2 -1 4 4 11 12 14 8 2 11 0 8 -5 -3 -5 0 -10 8 -10 8 0 11 5 8 10
-3 5 0 7 8 5 8 -3 20 2 27 11 8 9 11 10 7 4 -3 -7 -1 -13 4 -13 6 0 11 6 11
13 0 9 3 8 9 -2 7 -11 9 -11 13 0 2 7 19 14 38 15 19 1 37 9 43 19 8 14 11 15
18 4 7 -11 9 -10 9 3 0 11 5 15 14 12 8 -3 17 0 22 7 5 8 3 10 -7 4 -8 -5 -11
-4 -6 1 9 9 13 10 43 13 8 0 12 5 9 11 -3 5 -1 10 4 10 6 0 20 9 31 20 12 12
26 18 32 14 6 -4 8 -3 4 4 -3 6 3 14 15 17 17 6 19 9 8 16 -12 7 -11 9 1 10 8
1 19 0 25 -1 5 -1 7 2 3 5 -4 4 1 15 10 24 12 11 13 13 2 7 -8 -5 5 10 30 34
25 24 37 41 27 37 -17 -6 -17 -6 0 17 10 13 22 21 27 18 5 -3 7 7 4 22 -4 18
0 29 11 36 9 4 13 12 9 15 -4 4 0 15 9 23 10 11 12 17 4 20 -7 2 -8 9 -1 21 5
10 6 21 2 25 -3 4 1 4 11 0 12 -4 17 -1 17 11 0 12 -5 15 -17 11 -17 -6 -17
-5 0 8 21 16 25 118 5 113 -7 -1 -16 -6 -20 -12 -5 -6 -8 -5 -8 4 0 11 -3 11
-17 0 -11 -10 -14 -10 -9 -1 8 14 -19 12 -43 -2 -11 -7 -13 -5 -8 6 4 12 1 14
-14 11 -11 -3 -16 -10 -12 -17 4 -7 1 -6 -9 1 -8 7 -18 10 -21 6 -4 -3 -7 -1
-7 6 0 7 -6 11 -13 8 -10 -4 -13 2 -9 19 2 13 9 24 16 25 6 0 1 4 -11 9 -15 6
-21 15 -17 25 3 8 11 12 18 8 7 -4 7 -1 -1 9 -7 8 -10 18 -6 21 3 4 0 7 -8 7
-12 0 -11 2 1 10 13 9 13 11 0 20 -11 7 -4 8 24 4 28 -4 36 -2 31 6 -4 7 5 4
21 -6 19 -13 25 -14 19 -5 -6 11 -4 13 7 8 9 -3 21 0 28 6 10 10 12 8 7 -6 -7
-17 -6 -17 24 0 38 22 63 50 37 40 -10 -3 -18 -2 -18 3 0 6 7 10 16 10 8 0 12
5 9 10 -4 6 -11 7 -17 4 -7 -4 -8 -2 -4 5 4 6 12 9 17 5 13 -8 7 29 -6 38 -6
5 -5 15 3 29 8 11 9 18 3 15 -5 -4 -12 -2 -16 4 -3 5 1 10 9 10 9 0 16 5 16
11 0 5 -4 7 -10 4 -5 -3 -10 -1 -10 4 0 6 6 11 13 11 8 0 7 4 -3 10 -13 9 -13
10 0 10 12 1 11 3 -3 11 -9 6 -15 15 -11 20 3 5 0 18 -8 27 -12 15 -11 16 5 3
9 -8 21 -11 24 -7 4 4 1 11 -7 16 -12 8 -13 13 -2 30 10 16 10 20 0 20 -9 0
-10 3 -2 8 12 8 15 42 3 42 -4 0 -9 6 -12 13 -2 6 -2 1 0 -13 l3 -25 -15 25
c-13 21 -15 22 -13 5 2 -14 -2 -20 -14 -19 -22 2 -22 0 -1 -22 13 -13 14 -16
3 -12 -8 3 -21 -2 -28 -11 -8 -10 -11 -10 -6 -2 5 10 3 12 -5 7 -9 -6 -9 -11
1 -24 11 -13 11 -14 0 -8 -9 5 -15 1 -19 -13 -3 -12 -10 -21 -15 -21 -5 0 -6
6 -2 13 5 9 4 9 -6 0 -10 -9 -20 -4 -46 25 -19 20 -34 41 -34 45 0 5 -4 5 -10
2 -9 -6 -15 8 -11 29 1 5 -5 3 -14 -4 -13 -11 -15 -10 -9 6 4 10 4 16 -1 12
-9 -8 -60 16 -71 34 -5 9 -1 8 12 -2 16 -12 17 -12 6 0 -7 8 -18 15 -25 16 -7
0 -20 2 -31 2 -11 1 -16 7 -13 15 3 8 -1 14 -9 14 -7 0 -10 -5 -7 -11 4 -8 3
-8 -6 0 -13 12 -4 47 10 38 5 -3 6 3 2 12 -4 10 -2 15 3 11 6 -3 10 9 10 29 0
22 -5 34 -14 34 -7 0 -10 5 -7 10 9 14 -8 13 -23 -2 -7 -7 -12 -8 -12 -2 0 5
-5 2 -10 -6 -8 -13 -10 -12 -10 3 0 14 -4 16 -17 9 -24 -14 -46 8 -24 25 14
12 14 12 -3 7 -16 -6 -17 -4 -7 14 14 26 14 35 1 27 -15 -9 -12 2 6 19 14 14
14 16 0 16 -10 0 -13 6 -10 15 4 8 10 12 15 9 5 -3 6 2 3 10 -3 9 -11 13 -18
9 -7 -4 -7 -2 1 8 10 12 10 18 0 29 -9 10 -9 11 1 6 6 -4 12 -2 12 3 0 6 -6
11 -12 11 -10 0 -9 3 1 9 9 6 10 11 2 15 -6 4 -8 13 -4 19 12 19 13 58 1 51
-7 -5 -8 -2 -2 7 12 19 16 51 6 45 -5 -3 -9 1 -9 9 0 8 4 12 9 9 4 -3 8 0 8 5
0 6 -5 11 -12 11 -9 0 -9 3 0 12 14 14 16 32 3 23 -5 -3 -12 -1 -15 4 -6 8
-60 6 -76 -4 -5 -3 -12 0 -16 7 -5 8 -10 6 -15 -8 -7 -17 -8 -17 -8 -1 -1 9
-6 17 -12 17 -5 0 -8 -4 -5 -8 3 -5 -1 -9 -9 -9 -8 0 -12 4 -9 9 3 4 -2 8 -11
8 -9 0 -14 -4 -11 -8 3 -5 -1 -9 -9 -9 -8 0 -11 5 -8 10 3 6 1 7 -6 3 -6 -4
-17 -3 -24 2 -7 5 -18 7 -25 5z m348 -543 c0 -5 -4 -10 -10 -10 -5 0 -10 5
-10 10 0 6 5 10 10 10 6 0 10 -4 10 -10z m-723 -705 c0 -8 -4 -12 -9 -9 -5 3
-6 10 -3 15 9 13 12 11 12 -6z m523 -616 c0 -5 -4 -9 -8 -9 -5 0 -9 7 -9 15 0
8 4 12 9 9 4 -3 8 -9 8 -15z"/>
<path d="M1950 1059 c0 -5 5 -7 10 -4 6 3 10 8 10 11 0 2 -4 4 -10 4 -5 0 -10
-5 -10 -11z"/>
<path d="M876 367 c3 -10 9 -15 12 -12 3 3 0 11 -7 18 -10 9 -11 8 -5 -6z"/>
</g>
</svg>
