<svg width="45" height="45" fill="none" xmlns="http://www.w3.org/2000/svg"><path fill-rule="evenodd" clip-rule="evenodd" d="M20.73.046c-4.532.378-8.748 2.048-12.347 4.89-.834.659-2.801 2.626-3.46 3.46C2.318 11.693.716 15.452.153 19.59c-.204 1.49-.204 4.322 0 5.811.68 5.007 2.82 9.355 6.35 12.906 1.34 1.348 2.026 1.921 3.465 2.893 6.608 4.462 15.211 5.037 22.432 1.5 6.532-3.198 11.127-9.391 12.314-16.594.889-5.395-.32-11.22-3.272-15.76-1.235-1.9-3.26-4.156-4.866-5.422C33.35 2.38 29.412.698 25.48.184c-1.301-.17-3.574-.236-4.75-.138zm12.907 15c.07-.57-.075-1.017-.42-1.308-.372-.312-.89-.29-1.836.082-.817.32-10.786 4.166-17.173 6.626-2.204.848-4.16 1.62-4.349 1.716-.79.4-.983.921-.493 1.334.157.132.691.356 1.3.546l2.963.925c1.061.332 1.972.578 2.025.547.052-.03 3.018-1.893 6.589-4.14 3.99-2.51 6.587-4.09 6.737-4.1.171-.012.243.025.243.125 0 .078-2.338 2.252-5.196 4.83l-5.262 4.75c-.036.033-.144 1.187-.239 2.565s-.19 2.673-.21 2.879c-.035.37-.032.374.249.374.355 0 .765-.297 1.632-1.185a36.04 36.04 0 011.34-1.294l.68-.617 2.84 2.093c2.733 2.016 3.203 2.312 3.682 2.32.314.005.76-.293.93-.623.142-.275 3.86-17.554 3.968-18.445z" fill="#fff"/><path d="M33.217 13.738c.345.29.49.739.42 1.308-.109.891-3.826 18.17-3.968 18.445-.17.33-.616.628-.93.623-.48-.008-.95-.304-3.683-2.32L22.218 29.7l-.68.617c-.375.34-.978.921-1.341 1.294-.867.888-1.277 1.185-1.632 1.185-.281 0-.284-.004-.248-.374.02-.206.114-1.501.209-2.879.095-1.378.203-2.532.24-2.565l5.261-4.75c2.858-2.578 5.196-4.752 5.196-4.83 0-.1-.072-.137-.243-.125-.15.01-2.746 1.59-6.737 4.1a3868.28 3868.28 0 01-6.59 4.14c-.052.03-.963-.215-2.024-.547l-2.964-.925c-.607-.19-1.142-.414-1.299-.546-.49-.413-.298-.933.493-1.334.188-.095 2.146-.868 4.35-1.716 6.386-2.46 16.355-6.307 17.172-6.627.947-.37 1.464-.393 1.836-.08z" fill="#fff"/><path fill-rule="evenodd" clip-rule="evenodd" d="M20.73.046c-4.532.378-8.748 2.048-12.347 4.89-.834.659-2.801 2.626-3.46 3.46C2.318 11.693.716 15.452.153 19.59c-.204 1.49-.204 4.322 0 5.811.68 5.007 2.82 9.355 6.35 12.906 1.34 1.348 2.026 1.921 3.465 2.893 6.608 4.462 15.211 5.037 22.432 1.5 6.532-3.198 11.127-9.391 12.314-16.594.889-5.395-.32-11.22-3.272-15.76-1.235-1.9-3.26-4.156-4.866-5.422C33.35 2.38 29.412.698 25.48.184c-1.301-.17-3.574-.236-4.75-.138zm12.487 13.692c.345.29.49.739.42 1.308-.109.891-3.826 18.17-3.968 18.445-.17.33-.616.628-.93.623-.48-.008-.95-.304-3.683-2.32L22.218 29.7l-.68.617c-.375.34-.978.921-1.341 1.294-.867.888-1.277 1.185-1.632 1.185-.281 0-.284-.004-.248-.374.02-.206.114-1.501.209-2.879.095-1.378.203-2.532.24-2.565l5.261-4.75c2.858-2.578 5.196-4.752 5.196-4.83 0-.1-.072-.137-.243-.125-.15.01-2.746 1.59-6.737 4.1a3868.28 3868.28 0 01-6.59 4.14c-.052.03-.963-.215-2.024-.547l-2.964-.925c-.607-.19-1.142-.414-1.299-.546-.49-.413-.298-.933.493-1.334.188-.095 2.146-.868 4.35-1.716 6.386-2.46 16.355-6.307 17.172-6.627.947-.37 1.464-.393 1.836-.08z" fill="#039BE5"/></svg>