<svg width="45" height="45" fill="none" xmlns="http://www.w3.org/2000/svg"><path fill-rule="evenodd" clip-rule="evenodd" d="M26.548 8.647c1.872.241 3.015.474 3.692.753 1.954.806 4 2.777 4.897 4.715.733 1.588 1.17 5.688.916 8.611-.133 1.537-.466 3.529-.705 4.217-.724 2.08-2.973 4.373-5.145 5.242-1.384.554-3.797.869-7.195.938l-2.527.05-1.51 1.576c-.829.866-1.628 1.637-1.774 1.712-.534.276-1.257.03-1.587-.541-.063-.108-.119-.818-.146-1.835l-.044-1.658-.537-.202c-1.09-.41-2.291-1.25-3.314-2.321-1.601-1.676-2.156-3.021-2.542-6.166-.148-1.206-.149-4.708-.002-5.893.393-3.158.943-4.49 2.544-6.166 1.475-1.544 2.973-2.389 4.828-2.723.785-.142 2.509-.358 3.73-.468.95-.085 5.369.024 6.42.16zm-10.653 2.988c.614-.213 2.543-.522 4.011-.642 2.242-.183 4.98-.086 7.383.262 1.412.205 2.08.407 2.82.855 1.155.7 2.56 2.32 2.896 3.339.223.677.49 2.427.597 3.912.15 2.091-.14 5.385-.595 6.768-.428 1.296-2.047 2.965-3.566 3.674-.917.428-3.39.768-6.32.87l-1.654.057-2.273 2.331c-1.5 1.537-2.334 2.331-2.452 2.331-.175 0-.179-.053-.202-2.605l-.023-2.606-.505-.185c-1.234-.452-2.643-1.593-3.441-2.786-.517-.773-.656-1.169-.887-2.528a23.201 23.201 0 01.094-8.332c.252-1.296.603-1.929 1.663-2.996.955-.962 1.623-1.43 2.454-1.719z" fill="#fff"/><path fill-rule="evenodd" clip-rule="evenodd" d="M8.603 4.81C12.126 2.097 16.187.483 20.478.09c2.535-.232 5.091-.016 7.71.65 3.697.943 7.138 2.886 9.96 5.625 4.067 3.948 6.383 8.95 6.8 14.692.23 3.154-.309 6.649-1.48 9.616-1.176 2.979-2.766 5.398-5.04 7.671-1.887 1.888-3.434 3.027-5.679 4.182-6.938 3.571-15.325 3.258-21.981-.822-2.045-1.254-4.59-3.516-5.965-5.3C1.94 32.684.38 28.598.05 23.936c-.21-2.954.27-6.337 1.297-9.138.394-1.076 1.472-3.286 2.032-4.166C4.664 8.61 6.889 6.13 8.603 4.81zM30.24 9.4c-.677-.279-1.82-.512-3.692-.753-1.052-.135-5.47-.244-6.422-.159-1.22.11-2.944.326-3.729.468-1.855.334-3.353 1.18-4.828 2.723-1.6 1.675-2.15 3.008-2.544 6.166-.147 1.185-.146 4.687.002 5.893.386 3.145.94 4.49 2.542 6.166 1.023 1.07 2.224 1.912 3.314 2.321l.537.202.044 1.658c.027 1.017.083 1.727.146 1.835.33.57 1.053.817 1.587.541.146-.075.945-.846 1.775-1.712l1.509-1.575 2.527-.051c3.398-.07 5.811-.384 7.195-.938 2.172-.87 4.421-3.161 5.145-5.242.239-.688.572-2.68.706-4.217.253-2.923-.184-7.023-.917-8.61-.896-1.94-2.943-3.91-4.897-4.716z" fill="#fff"/><path fill-rule="evenodd" clip-rule="evenodd" d="M19.906 10.993c-1.468.12-3.397.429-4.011.642-.831.29-1.5.757-2.454 1.719-1.06 1.067-1.411 1.7-1.664 2.996a23.201 23.201 0 00-.093 8.332c.231 1.36.37 1.755.887 2.528.798 1.193 2.207 2.334 3.441 2.786l.505.185.023 2.606c.023 2.552.027 2.605.202 2.605.118 0 .953-.794 2.452-2.33l2.273-2.332 1.653-.057c2.932-.102 5.404-.442 6.321-.87 1.519-.709 3.138-2.378 3.566-3.674.456-1.383.745-4.677.595-6.768-.107-1.485-.374-3.235-.597-3.912-.336-1.018-1.741-2.639-2.896-3.338-.74-.449-1.408-.651-2.82-.856-2.403-.348-5.141-.445-7.383-.262zm8.583 6.537c-.9-1.82-2.49-3.07-4.526-3.559-.887-.212-1.746-.228-1.94-.034-.346.347-.06.623.72.693 1.679.153 2.873.685 3.938 1.756 1.122 1.129 1.616 2.275 1.757 4.07.049.629.1.842.23.96.14.127.205.134.4.045l.232-.106-.058-.854c-.086-1.274-.267-1.987-.753-2.971zm-8.13.113c-.083-.328-1.235-2.012-1.747-2.554-.423-.447-.509-.498-.828-.498-.906 0-2.4 1.496-2.406 2.411-.002.295.809 2.242 1.34 3.218.934 1.715 2.208 3.348 3.452 4.426 1.417 1.226 4.098 2.796 5.661 3.313.536.177.577.179.996.04.857-.285 2.008-1.642 2.008-2.368 0-.2-.109-.362-.47-.702-.576-.544-2.254-1.705-2.611-1.807-.433-.125-.794.043-1.327.615-.464.496-.519.529-.893.529-.554 0-1.791-.63-2.502-1.273-.626-.566-1.256-1.469-1.618-2.318-.378-.885-.354-1.008.31-1.646.583-.56.75-.925.635-1.386zm7.024 1.454c-.398-1.684-1.68-2.96-3.427-3.405-.63-.16-1.205-.173-1.35-.028-.155.155-.127.492.05.584.084.045.443.13.797.188 1.224.204 2.337.97 2.838 1.951.213.418.43 1.323.431 1.804.002.552.344.817.655.506.177-.177.18-.863.006-1.6zm-1.646.436c-.066-.912-.455-1.516-1.237-1.92-.366-.19-1.218-.259-1.361-.11-.16.165-.135.499.044.59.085.044.32.1.524.127.203.026.495.136.648.245.304.217.604.785.607 1.151a.818.818 0 00.163.431c.128.158.213.186.408.137.244-.061.246-.065.204-.65z" fill="#fff"/><path d="M18.612 15.09c.512.54 1.664 2.226 1.747 2.553.115.46-.052.825-.635 1.386-.664.639-.688.761-.31 1.646.362.85.992 1.752 1.618 2.318.71.643 1.948 1.273 2.502 1.273.374 0 .43-.033.893-.53.534-.571.894-.739 1.327-.614.357.102 2.035 1.263 2.611 1.807.361.34.47.503.47.702 0 .726-1.151 2.083-2.008 2.367-.419.14-.46.138-.996-.04-1.563-.516-4.244-2.086-5.66-3.312-1.245-1.078-2.519-2.71-3.453-4.426-.531-.976-1.342-2.923-1.34-3.218.007-.915 1.5-2.411 2.405-2.411.32 0 .406.051.83.498zm5.344.602c1.747.446 3.03 1.72 3.427 3.405.174.737.171 1.423-.006 1.6-.31.31-.653.046-.655-.506-.001-.48-.218-1.386-.43-1.804-.502-.982-1.615-1.747-2.839-1.95-.354-.06-.713-.144-.798-.189-.176-.092-.204-.429-.048-.585.144-.144.72-.132 1.35.029z" fill="#fff"/><path d="M23.963 13.971c2.037.489 3.627 1.738 4.526 3.559.486.984.667 1.697.753 2.971l.058.854-.232.106c-.195.089-.26.082-.4-.046-.13-.117-.181-.33-.23-.959-.14-1.795-.635-2.941-1.757-4.07-1.065-1.071-2.26-1.603-3.939-1.756-.78-.07-1.065-.346-.718-.693.193-.194 1.052-.178 1.939.034zm.537 3.641c.782.405 1.171 1.01 1.237 1.921.042.586.04.59-.204.651-.195.05-.28.02-.408-.137a.818.818 0 01-.163-.43c-.003-.367-.303-.935-.607-1.152a1.691 1.691 0 00-.648-.245c-.204-.026-.44-.083-.524-.126-.179-.092-.204-.427-.044-.592.143-.148.995-.08 1.36.11z" fill="#fff"/><path fill-rule="evenodd" clip-rule="evenodd" d="M20.478.09c-4.29.393-8.352 2.007-11.875 4.72-1.714 1.32-3.94 3.8-5.225 5.822-.56.88-1.638 3.09-2.032 4.166-1.027 2.8-1.508 6.184-1.297 9.138.331 4.662 1.89 8.749 4.754 12.468 1.375 1.784 3.92 4.046 5.965 5.3 6.656 4.08 15.043 4.393 21.981.822 2.245-1.155 3.792-2.294 5.68-4.182 2.273-2.273 3.863-4.692 5.039-7.671 1.171-2.967 1.71-6.462 1.48-9.616-.417-5.741-2.733-10.744-6.8-14.692-2.822-2.74-6.264-4.682-9.96-5.624-2.618-.667-5.175-.883-7.71-.65zm6.07 8.557c1.872.241 3.015.474 3.692.753 1.954.806 4 2.777 4.897 4.715.733 1.588 1.17 5.688.916 8.611-.133 1.537-.466 3.529-.705 4.217-.724 2.08-2.973 4.373-5.145 5.242-1.384.554-3.797.869-7.195.938l-2.527.05-1.51 1.576c-.829.866-1.628 1.637-1.774 1.712-.534.276-1.257.03-1.587-.541-.063-.108-.119-.818-.146-1.835l-.044-1.658-.537-.202c-1.09-.41-2.291-1.25-3.314-2.321-1.601-1.676-2.156-3.021-2.542-6.166-.148-1.206-.149-4.708-.002-5.893.393-3.158.943-4.49 2.544-6.166 1.475-1.544 2.973-2.389 4.828-2.723.785-.142 2.509-.358 3.73-.468.95-.085 5.369.024 6.42.16zm-6.642 2.346c-1.468.12-3.397.429-4.011.642-.831.29-1.5.757-2.454 1.719-1.06 1.067-1.411 1.7-1.664 2.996a23.201 23.201 0 00-.093 8.332c.231 1.36.37 1.755.887 2.528.798 1.193 2.207 2.334 3.441 2.786l.505.185.023 2.606c.023 2.552.027 2.605.202 2.605.118 0 .953-.794 2.452-2.33l2.273-2.332 1.653-.057c2.932-.102 5.404-.442 6.321-.87 1.519-.709 3.138-2.378 3.566-3.674.456-1.383.745-4.677.595-6.768-.107-1.485-.374-3.235-.597-3.912-.336-1.018-1.741-2.639-2.896-3.338-.74-.449-1.408-.651-2.82-.856-2.403-.348-5.141-.445-7.383-.262zm4.057 2.978c2.037.489 3.627 1.738 4.526 3.559.486.984.667 1.697.753 2.971l.058.854-.232.106c-.195.089-.26.082-.4-.046-.13-.117-.181-.33-.23-.959-.14-1.795-.635-2.941-1.757-4.07-1.065-1.071-2.26-1.603-3.939-1.756-.78-.07-1.065-.346-.718-.693.193-.194 1.052-.178 1.939.034zm-5.35 1.118c.511.542 1.663 2.226 1.746 2.554.115.46-.052.825-.635 1.386-.664.639-.688.761-.31 1.646.362.85.992 1.752 1.618 2.318.71.643 1.948 1.273 2.502 1.273.374 0 .43-.033.893-.53.534-.571.894-.739 1.327-.614.357.102 2.035 1.263 2.611 1.807.361.34.47.503.47.702 0 .726-1.151 2.083-2.008 2.367-.419.14-.46.138-.996-.04-1.563-.516-4.244-2.086-5.66-3.312-1.245-1.078-2.519-2.71-3.453-4.426-.531-.976-1.342-2.923-1.34-3.218.007-.915 1.5-2.411 2.405-2.411.32 0 .406.051.83.498zm5.343.603c1.747.446 3.03 1.72 3.427 3.405.174.737.171 1.423-.006 1.6-.31.31-.653.046-.655-.506-.001-.48-.218-1.386-.43-1.804-.502-.982-1.615-1.747-2.839-1.95-.354-.06-.713-.144-.798-.189-.176-.092-.204-.429-.048-.585.144-.144.72-.132 1.35.029zm.544 1.92c.782.405 1.171 1.01 1.237 1.921.042.586.04.59-.204.651-.195.05-.28.02-.408-.137a.818.818 0 01-.163-.43c-.003-.367-.303-.935-.607-1.152a1.691 1.691 0 00-.648-.245c-.204-.026-.44-.083-.524-.126-.179-.092-.204-.427-.044-.592.143-.148.995-.08 1.36.11z" fill="#6F3FAA"/></svg>