<svg width="112" height="90" fill="none" xmlns="http://www.w3.org/2000/svg"><path fill-rule="evenodd" clip-rule="evenodd" d="M10.45.363c-.329.196-.673.502-.765.68-.091.178-.217 2.033-.279 4.122l-.111 3.798-3.942.108c-2.168.06-4.102.184-4.298.276-.195.093-.53.48-.742.861-.495.886-.306 1.983.462 2.678l.562.509 18.541.112c18.137.109 18.579.121 20.216.566 4.11 1.115 7.018 2.765 9.932 5.635 2.784 2.74 4.542 5.782 5.517 9.545.52 2.004.52 7.008 0 9.012-1.016 3.922-2.74 6.845-5.739 9.735-2.319 2.235-4.379 3.566-7.142 4.615-3.481 1.322-2.53 1.264-22.82 1.391l-18.577.117-.639.689c-1.2 1.295-.6 3.19 1.158 3.651.705.185 8.8.228 32.256.17l31.316-.079v17.937H51.17l-.263-.844c-1.07-3.437-3.758-6.194-7.226-7.407-4.28-1.496-8.944-.486-12.175 2.639-1.59 1.538-2.923 3.808-3.172 5.405-.187 1.208-.444 1.208-.632 0-.405-2.6-3.236-6.133-5.983-7.47-6.591-3.206-14.498.05-16.59 6.833l-.26.844-1.73.118c-2.086.142-2.33.239-2.826 1.127-.495.886-.306 1.983.462 2.678.482.437.82.52 2.385.582l1.824.074.136.703c.266 1.365 1.61 3.571 2.96 4.857 2.447 2.33 4.918 3.314 8.332 3.314 3.972 0 7.413-1.747 9.55-4.85.896-1.301 1.837-3.55 1.837-4.392 0-.285.099-.518.22-.518.12 0 .218.233.218.518 0 .842.94 3.09 1.837 4.392 1.144 1.66 2.55 2.808 4.623 3.769 3.616 1.677 7.561 1.494 11.121-.516 2.201-1.243 4.685-4.454 5.102-6.595l.14-.724h23.992l.14.724c.431 2.213 2.95 5.388 5.327 6.718 3.551 1.986 8.077 2.01 11.691.06 2.35-1.266 4.367-3.64 5.238-6.162l.45-1.303 4.533-.071 4.532-.071 1.38-.721c1.533-.801 2.193-1.458 3.067-3.055l.59-1.078V46.315l-6.073-12.662c-5.932-12.367-6.1-12.686-7.263-13.743-2.138-1.945-1.37-1.857-16.994-1.935-9.379-.046-13.942.004-14.496.16-.445.126-1.012.477-1.26.78-.445.546-.449.72-.449 17.827v17.275l-7.829-.007-7.829-.006.657-.46c1.335-.933 3.932-3.477 5.137-5.031 4.93-6.356 6.386-14.935 3.813-22.451-2.102-6.138-6.733-11.352-12.691-14.29-3.71-1.828-6.41-2.496-10.821-2.678l-3.176-.13-.112-3.8c-.061-2.088-.196-3.967-.3-4.175-.481-.964-.835-.995-11.347-.988-8.928.005-9.98.04-10.517.362zm17.568 6.28v2.215H14.003V4.426h14.015v2.216zM79.53 33.6l.06 11.027.531 1.038c.709 1.387 1.982 2.576 3.489 3.256l1.237.56 11.332.06 11.333.062v12.463c0 13.83.029 13.536-1.419 14.198-.574.263-1.515.333-4.457.333h-3.729l-.337-1.108c-.8-2.631-3.257-5.45-5.845-6.71-6.518-3.17-14.434.12-16.52 6.868l-.26.844-2.44.06-2.44.06V22.574h9.404l.06 11.026zm15.908-10.445c.364.356 2.513 4.625 5.567 11.062 2.736 5.764 4.974 10.536 4.974 10.604 0 .067-4.592.122-10.205.122H85.568l-.744-.717-.745-.718V22.575h10.764l.594.58zM10.8 31.74c-.9.377-1.397 1.094-1.397 2.018 0 .942.503 1.648 1.445 2.027 1.094.44 28.659.435 29.753-.006.77-.31 1.431-1.243 1.431-2.021 0-.778-.66-1.711-1.43-2.022-1.078-.433-28.767-.43-29.802.004zm-.34 9.132c-1.236.74-1.445 2.463-.417 3.453l.64.617h20.653l.64-.617c1.057-1.018.748-2.989-.558-3.562-.42-.184-3.254-.25-10.474-.247-8.832.005-9.962.044-10.484.356zm8.943 31.933c5.206 2.446 5.174 9.558-.053 12.037-.901.428-1.401.51-3.049.508-1.634-.003-2.139-.088-2.956-.497-2.39-1.198-3.737-3.179-3.89-5.725-.122-2.036.446-3.596 1.798-4.936 2.277-2.257 5.229-2.76 8.15-1.387zm23.207-.127c1.4.618 2.685 1.832 3.38 3.195.445.87.53 1.35.527 2.939-.003 1.642-.082 2.042-.583 2.954-.694 1.265-1.903 2.414-3.245 3.087-.817.409-1.322.494-2.956.497-2.3.004-3.543-.457-4.988-1.848-3.152-3.038-2.486-8.281 1.328-10.434 2.147-1.213 4.371-1.345 6.537-.39zm46.87.127c4.242 1.993 5.211 7.491 1.885 10.697-1.444 1.391-2.688 1.852-4.988 1.848-1.634-.003-2.139-.088-2.956-.497-2.39-1.198-3.736-3.179-3.89-5.725-.122-2.036.446-3.596 1.798-4.936 2.277-2.257 5.23-2.76 8.15-1.387z" fill="#000"/></svg>