<svg width="108" height="97" fill="none" xmlns="http://www.w3.org/2000/svg"><path fill-rule="evenodd" clip-rule="evenodd" d="M37.938 1.853a3865.24 3865.24 0 00-8.98 10.75c-7.886 9.466-7.84 9.397-7.076 10.665.511.85 17.496 13.386 18.315 13.52.472.076.828-.015 1.199-.309.29-.23 2.992-3.765 6.005-7.857 3.012-4.091 5.53-7.439 5.597-7.438.149.002 5.358 9.328 5.26 9.417-.04.036-.848.455-1.798.931-1.854.93-2.392 1.474-2.392 2.417 0 1.275.242 1.363 10.825 3.94 5.913 1.44 10.065 2.352 10.35 2.274.26-.072.634-.255.83-.408.339-.263 9.835-15.34 10.61-16.848.419-.81.316-1.529-.306-2.153-.573-.575-1.38-.525-3.258.2l-1.601.618-.288-.565c-.158-.311-2.257-4.95-4.665-10.31C74.156 5.338 71.99.74 71.75.477L71.313 0H39.505l-1.567 1.853zm36.127 12.234c2.615 5.825 4.904 10.76 5.087 10.965.182.206.585.444.895.53l.563.155-3.291 5.353c-3.257 5.295-3.299 5.352-3.926 5.242-.348-.06-3.219-.74-6.378-1.51L61.27 33.42l.756-.716c.653-.617.741-.813.642-1.424-.062-.39-1.657-3.465-3.544-6.833-3.139-5.605-11.392-20.81-11.392-20.987 0-.042 4.855-.051 10.79-.02l10.788.054 4.755 10.592zm-26.616-3.601c2.005 3.728 3.649 6.904 3.654 7.058.011.385-10.97 14.774-11.222 14.702-.11-.031-3.286-2.355-7.055-5.164-6.008-4.476-6.822-5.149-6.587-5.45.147-.188 3.58-4.327 7.63-9.196l7.362-8.854 1.286.063 1.286.062 3.646 6.779zm37.666 31.632c-5.17 2.887-9.614 5.387-9.878 5.555-.264.169-.568.628-.677 1.02-.24.87-.511.31 4.936 10.177 2.278 4.127 4.117 7.523 4.088 7.549-.055.047-10.199.945-10.666.944-.193-.001-.264-.549-.264-2.028 0-1.114-.103-2.219-.228-2.454-.32-.6-1.527-1.073-2.138-.837-.676.263-.702.293-7.33 8.807-5.218 6.702-5.933 7.711-5.933 8.37 0 .627.873 2.05 5.4 8.796 2.97 4.426 5.636 8.261 5.925 8.524.635.576 1.553.614 2.196.092.505-.41.805-1.673.828-3.476l.013-1.001 11.61-.058c11.371-.057 11.62-.067 12.042-.491.696-.698 12.953-28.034 12.961-28.906.009-.956-11.412-24.642-12.231-25.366-.297-.263-.7-.475-.898-.472-.197.002-4.587 2.367-9.756 5.255zm-66.423-4.294c-3.601.147-7.099.275-7.772.286-1.468.023-2.26.625-2.26 1.718 0 .975.238 1.282 1.866 2.408l1.48 1.023-2.272 3.737C1.525 60.501 0 63.106 0 63.618c0 .365 1.11 2.197 3.261 5.38 1.794 2.653 5.847 8.685 9.008 13.403 3.16 4.719 5.988 8.842 6.283 9.162l.535.582h27.938l.512-.546.512-.547.058-10.652c.036-6.607-.02-10.86-.149-11.198-.44-1.164-.484-1.17-10.678-1.629-5.21-.234-9.51-.463-9.556-.507-.066-.067 4.487-9.39 4.7-9.624.035-.038.809.36 1.72.885.91.525 1.893 1.011 2.183 1.08.698.166 1.847-.549 2.025-1.26.19-.755-6.955-19.896-7.593-20.345-.528-.37-2.52-.367-12.067.022zm12.136 9.255c1.209 3.291 2.238 6.102 2.286 6.247.065.194-.114.178-.675-.057-1.475-.618-1.685-.36-4.79 5.89-3.107 6.255-11.436 22.181-11.598 22.178-.058-.001-2.797-4.006-6.088-8.9L3.98 63.539l6.173-10.004c6.157-9.98 6.493-10.626 6.034-11.618-.143-.306.331-.363 4.552-.546a482.02 482.02 0 016.301-.24l1.59-.036 2.198 5.984zm68.45 5.037l5.226 10.682-.516 1.02c-.283.562-.63 1.058-.771 1.102-.624.196-15.653 1.166-15.78 1.018-.212-.25-8.665-15.746-8.718-15.983-.052-.234 14.848-8.682 15.14-8.585.106.035 2.544 4.871 5.418 10.746zM69.665 70.483c.14.261.509.539.82.617.31.078 4.514-.206 9.34-.63 9.996-.881 21.736-1.723 21.889-1.57.056.056-1.874 4.497-4.289 9.868l-4.39 9.765-11.68.006c-12.313.005-12.56.024-13.083.96-.133.238-1.087-1.037-3.714-4.956l-3.534-5.276 4.07-5.234c3.8-4.889 4.077-5.195 4.193-4.63.069.334.239.82.379 1.08zm-34.5.69c2.903.116 6.159.268 7.233.338l1.954.127v16.906H20.688l-1.151-1.772-1.151-1.771 3.723-7.146 3.723-7.145 2.027.126c1.114.07 4.402.221 7.306.337z" fill="#000"/></svg>