<svg width="61" height="82" fill="none" xmlns="http://www.w3.org/2000/svg"><path fill-rule="evenodd" clip-rule="evenodd" d="M11.466.324a2.393 2.393 0 00-.975.948c-.318.588-.342.946-.348 5.242l-.007 4.61L5.29 16.25C2.626 19.068.338 21.609.207 21.895c-.201.442-.23 3.944-.193 22.661.044 21.173.06 22.174.363 22.937.174.44.574 1.178.888 1.642l.571.843-.571.843c-2.908 4.294-.457 9.928 4.78 10.986 1.264.255 47.625.258 48.908.003 5.221-1.038 7.685-6.702 4.781-10.989l-.571-.843.571-.843c1.295-1.912 1.2-.408 1.251-19.773.04-14.609.009-17.415-.192-17.856C60.495 30.853 40 10.267 39.266 9.883c-.47-.245-1.05-.28-4.651-.28h-4.116v-3.85c0-3.542-.027-3.9-.34-4.482a2.277 2.277 0 00-1.012-.954C28.503.007 28.17-.006 20.29 0c-7.818.007-8.218.022-8.823.323zm13.946 6.877v2.402H15.237V4.799h10.175V7.2zm21.076 16.693l9.449 9.486v24.945l-.467-.097a19.707 19.707 0 00-1.491-.199c-.853-.085-1.144-.045-1.736.24-.795.383-1.394 1.286-1.394 2.1 0 1.219 1.254 2.402 2.544 2.402 1.296 0 2.544 1.184 2.544 2.414 0 1.193-1.288 2.387-2.58 2.393-1.274.006-2.508 1.187-2.508 2.4 0 1.213 1.234 2.393 2.508 2.4 1.33.006 2.58 1.171 2.58 2.404 0 .795-.6 1.718-1.353 2.08-.66.319-.951.322-24.097.322H7.059l-.677-.359c-.755-.4-1.32-1.275-1.32-2.043 0-1.184 1.284-2.402 2.531-2.402 1.303 0 2.557-1.178 2.557-2.402 0-1.224-1.254-2.402-2.557-2.402-1.247 0-2.53-1.219-2.53-2.402 0-1.184 1.283-2.403 2.53-2.403 1.303 0 2.557-1.178 2.557-2.402 0-.814-.6-1.717-1.394-2.1-.592-.285-.883-.325-1.736-.24a19.72 19.72 0 00-1.491.199l-.467.096V23.737L9.43 19.08l4.367-4.658 11.622-.007 11.621-.008 9.45 9.487zm-16.856-4.46c-3.795 1.038-6.252 4.564-5.62 8.065.4 2.215.853 2.78 7.813 9.74 3.48 3.48 6.637 6.539 7.013 6.797 1.639 1.12 4.395 1.575 6.34 1.046 2.691-.734 4.73-2.666 5.408-5.125.725-2.628-.023-4.912-2.399-7.324C41.95 26.3 36.437 20.88 35.84 20.492c-1.216-.79-2.4-1.151-3.984-1.214-.882-.036-1.745.025-2.224.156zm3.027 4.862c.3.155 3.291 3.038 6.648 6.41 6.472 6.497 6.633 6.697 6.385 7.943-.154.777-1.051 1.646-1.845 1.786-1.039.184-1.79-.041-2.585-.776C38.82 37.4 29.416 27.75 29.215 27.296c-.326-.739-.305-1.134.106-1.936.595-1.161 2.174-1.664 3.338-1.064zM29.291 48.68c-.452.226-.942.785-1.854 2.115-2.786 4.066-4.569 7.763-4.569 9.476 0 1.933.81 3.76 2.282 5.15 3.61 3.41 9.678 2.579 12.006-1.644 1.027-1.862 1.212-3.43.624-5.272-.879-2.75-4.801-9.112-6.03-9.783-.8-.436-1.64-.45-2.459-.042zm2.534 8.823c.588 1.096 1.112 2.285 1.163 2.642.187 1.318-1.059 2.627-2.501 2.627-1.205 0-2.531-1.215-2.531-2.319 0-.871 2.21-5.125 2.6-5.003.109.034.68.958 1.269 2.053z" fill="#000"/></svg>