<svg width="66" height="59" fill="none" xmlns="http://www.w3.org/2000/svg"><path fill-rule="evenodd" clip-rule="evenodd" d="M23.184 1.127c-.526.62-2.996 3.563-5.487 6.54-4.82 5.756-4.792 5.715-4.325 6.486.313.516 10.692 8.142 11.193 8.223a.86.86 0 00.732-.188c.178-.14 1.83-2.29 3.67-4.779 1.841-2.488 3.38-4.524 3.42-4.524.092.001 3.275 5.674 3.215 5.728a26.55 26.55 0 01-1.099.566c-1.133.566-1.461.897-1.461 1.47 0 .776.148.83 6.615 2.397 3.614.875 6.15 1.43 6.324 1.383a1.74 1.74 0 00.508-.248c.207-.16 6.01-9.331 6.485-10.248.255-.493.192-.93-.188-1.31-.35-.35-.844-.319-1.991.122l-.979.376-.175-.344c-.097-.189-1.38-3.01-2.852-6.27-1.47-3.26-2.795-6.058-2.942-6.217L43.58 0H24.141l-.957 1.127zm22.078 7.441c1.598 3.543 2.997 6.545 3.108 6.67.112.125.358.27.547.322l.345.095-2.012 3.255c-1.99 3.221-2.016 3.256-2.399 3.189-.212-.037-1.967-.45-3.898-.92l-3.51-.85.462-.436c.399-.376.453-.495.392-.867-.038-.236-1.013-2.107-2.166-4.156-1.918-3.41-6.961-12.657-6.961-12.765 0-.025 2.967-.03 6.593-.012l6.593.033 2.906 6.442zm-16.266-2.19c1.226 2.267 2.23 4.2 2.233 4.293.008.234-6.704 8.986-6.857 8.943-.068-.02-2.008-1.433-4.312-3.141-3.671-2.723-4.168-3.132-4.025-3.315.09-.115 2.188-2.632 4.662-5.594l4.5-5.385.786.038.785.038 2.228 4.123zm23.019 19.24c-3.16 1.756-5.876 3.277-6.037 3.38-.161.102-.347.38-.413.62-.147.529-.313.188 3.016 6.19 1.392 2.51 2.516 4.575 2.498 4.59-.033.03-6.233.576-6.518.575-.118 0-.161-.333-.161-1.233 0-.678-.063-1.35-.14-1.493-.196-.365-.933-.652-1.306-.509-.413.16-.429.178-4.48 5.357-3.188 4.077-3.625 4.69-3.625 5.09 0 .383.533 1.247 3.3 5.351 1.814 2.692 3.444 5.025 3.62 5.185.389.35.95.373 1.343.056.308-.25.492-1.018.505-2.115l.008-.608 7.096-.036c6.948-.035 7.1-.04 7.358-.299.425-.424 7.916-17.05 7.921-17.581.006-.582-6.974-14.989-7.475-15.43-.181-.159-.428-.288-.548-.286-.12.001-2.803 1.44-5.962 3.196zm-40.592-2.612c-2.201.09-4.338.168-4.75.174-.897.014-1.381.38-1.381 1.045 0 .593.146.78 1.14 1.465l.905.622-1.388 2.273C.932 36.8 0 38.384 0 38.695c0 .223.679 1.337 1.993 3.272a3183.3 3183.3 0 015.505 8.153c1.931 2.87 3.659 5.378 3.839 5.573l.328.354h17.072l.313-.332.313-.333.036-6.479c.022-4.018-.013-6.605-.091-6.811-.27-.708-.296-.712-6.526-.99-3.184-.143-5.812-.282-5.84-.31-.04-.04 2.743-5.71 2.873-5.853.021-.023.494.219 1.05.538.557.32 1.157.615 1.335.657.426.101 1.129-.334 1.238-.766.115-.46-4.25-12.102-4.64-12.375-.324-.226-1.541-.223-7.375.013zm7.416 5.63a935.368 935.368 0 011.398 3.8c.04.117-.07.108-.413-.035-.902-.376-1.03-.22-2.927 3.583-1.899 3.804-6.989 13.491-7.088 13.489-.035 0-1.71-2.437-3.72-5.413l-3.657-5.413 3.772-6.084c3.763-6.07 3.969-6.464 3.688-7.067-.087-.186.203-.221 2.782-.332a294.74 294.74 0 013.85-.146l.972-.022 1.343 3.64zM60.67 31.7l3.194 6.497-.315.62c-.173.342-.385.643-.47.67-.382.12-9.567.71-9.644.62-.13-.152-5.296-9.578-5.328-9.722-.032-.142 9.074-5.281 9.253-5.222.064.022 1.554 2.963 3.31 6.537zM42.575 42.87c.085.159.31.328.5.375.19.048 2.76-.125 5.708-.383 6.11-.536 13.284-1.048 13.377-.955.034.035-1.145 2.736-2.62 6.002l-2.684 5.94-7.138.003c-7.524.004-7.675.015-7.995.585-.08.144-.664-.631-2.269-3.015l-2.16-3.209 2.487-3.184c2.322-2.973 2.492-3.16 2.563-2.815.042.202.146.498.231.656zm-21.084.42c1.775.07 3.764.163 4.42.205l1.195.077v10.284H12.643l-.704-1.078-.703-1.078 2.275-4.346 2.275-4.346 1.239.077c.68.042 2.69.134 4.465.205z" fill="#9EC419"/></svg>