<svg width="72" height="42" fill="none" xmlns="http://www.w3.org/2000/svg"><path d="M12.806.2l.044.089c-.183.09-.394.303-.56.55-.168.25-.274.508-.274.681 0 .01.003.035.014.077.01.04.026.09.045.146.04.112.094.245.153.37l.578-1.914zm0 0l.044.089a.79.79 0 01.22-.057c.119-.019.289-.036.536-.05.494-.03 1.289-.05 2.589-.062 2.599-.026 7.21-.024 15.46-.01l18.362.034.392.374c.11.105.22.237.307.364.089.128.148.24.166.312v.013c0 .013 0 .03-.002.052-.003.045-.01.105-.02.18-.021.151-.055.357-.1.606a74.5 74.5 0 01-.375 1.913c-.31 1.49-.71 3.277-1.04 4.593l.096.025-.097-.025-.093.372-.031.123.127.001 5.539.059c5.435.058 5.556.067 6.88.421 5.658 1.515 9.615 6.17 10.117 11.894.037.418.022.859-.126 1.87-.149 1.012-.43 2.59-.926 5.279-.313 1.7-.623 3.296-.87 4.496-.124.6-.231 1.102-.316 1.467a11.38 11.38 0 01-.108.441 1.44 1.44 0 01-.06.196l.088.045-.089-.045a1.222 1.222 0 01-.25.352.961.961 0 01-.368.208c-.32.106-.797.14-1.583.14h-1.449l-.021.071-.255.847.096.029-.096-.029c-.834 2.782-3.56 4.884-6.61 5.087-3.242.216-6.524-2.03-7.44-5.086l-.255-.847-.021-.071h-.075l-9.146.035-9.146.034h-.074l-.021.072-.169.57c-.121.41-.375.963-.676 1.501-.3.538-.644 1.053-.94 1.39-1.594 1.807-4.438 2.773-6.819 2.313-2.632-.507-5.028-2.637-5.754-5.106l-.217-.738-.02-.072h-2.652c-1.187 0-1.832-.006-2.223-.044a1.67 1.67 0 01-.413-.08.823.823 0 01-.239-.138l-.062.078.062-.078c-.504-.396-.678-1.045-.439-1.617.086-.205.169-.353.283-.466.112-.112.262-.195.494-.257.472-.125 1.249-.151 2.65-.151h2.533l.022-.068.294-.88c.603-1.812 2-3.42 3.676-4.236l-.043-.09.043.09c.612-.298 1.094-.487 1.59-.603.496-.116 1.012-.16 1.691-.163 2.06-.011 3.82.711 5.277 2.166a8.185 8.185 0 011.206 1.6c.345.59.598 1.177.681 1.62l.099-.018-.099.018.091.483.016.081h8.151l.018-.077.075-.316h0M12.806.199L40.95 32.724m0 0c.04-.175 1.147-5.032 2.457-10.793 1.31-5.762 2.798-12.271 3.307-14.466.254-1.098.486-2.118.653-2.876a80.513 80.513 0 00.254-1.192 2.901 2.901 0 00.02-.138.12.12 0 00-.043-.091.189.189 0 00-.055-.031.679.679 0 00-.132-.031 5.52 5.52 0 00-.517-.045 68.408 68.408 0 00-2.52-.059c-2.483-.027-6.764-.035-13.955-.035h-3.026M40.95 32.724L27.394 2.967m-7.236 3.22c.84.383 1.039 1.696.36 2.375l-.412.41m.052-2.784l-13.064.047c.198-.03.493-.054.959-.07.931-.033 2.53-.04 5.37-.042a222.31 222.31 0 015.005.036c.535.013.93.03 1.21.05.14.011.248.023.329.035.084.013.13.026.15.035h0c.382.174.626.563.692 1 .066.435-.05.899-.363 1.212l-.382.382m.094-2.685c-.269-.123-2.092-.167-6.734-.165-5.68.004-6.406.03-6.742.237m13.476-.072l-13.423.157m13.37 2.628v-.1h-.04m.04.1l-.07-.071.03-.03m.04.1H6.825m13.24-.1h-13.2m0 0l.03.03-.071.07m.041-.1l-.382-.381c-.615-.614-.49-1.687.25-2.146m.132 2.528h-.041v.1m0 0l-.412-.411c-.66-.66-.527-1.809.268-2.302m.053.085L6.68 6.26m.053.085s0 0 0 0L6.68 6.26m20.712-3.293c-7.442.002-11.159.002-13.055-.092m13.055.092l-13.055-.092m0 0c-.533-.027-.92-.06-1.203-.104m1.203.104l-1.203-.104m0 0c-.284-.043-.458-.095-.57-.153m.57.153l-.57-.153m0 0a.436.436 0 01-.2-.192m.2.192l-.2-.192m0 0a1.369 1.369 0 01-.062-.138m.062.138l-.062-.138m0 0a1.641 1.641 0 01-.006-.015m.006.015l-.006-.015m0 0c-.02-.048-.042-.102-.069-.16l.069.16zM67.05 33.117h.083l.015-.082 1.033-5.528c.5-2.675.758-4.069.87-4.915.115-.852.084-1.158.007-1.655a10.603 10.603 0 00-3.785-6.6l-.063.077.063-.078c-.54-.437-1.317-.9-2.121-1.29s-1.643-.708-2.31-.855l-.021.098.02-.098c-.843-.185-2.046-.225-6.588-.225H48.62l-.02.076-.095.379a9595.62 9595.62 0 00-4.573 20.047l.097.022-.097-.023-.12.528-.028.122h7.447l.022-.071.179-.598c.693-2.313 2.593-4.258 4.859-4.976.625-.198 1.427-.299 2.233-.299s1.608.1 2.233.299c2.266.718 4.166 2.663 4.859 4.976.043.143.078.258.116.348.039.09.084.164.152.217.069.054.15.079.243.091.091.012.204.013.343.013h.579zm-46.934-17.84h0c.382.175.626.565.692 1 .066.436-.05.9-.363 1.213l-.382.382h-9.209c-3.696 0-5.535.001-6.492-.1-.529-.056-.763-.141-.894-.254a.608.608 0 01-.15-.209c-.027-.056-.05-.115-.077-.183a7.633 7.633 0 00-.056-.137c-.255-.61-.04-1.27.524-1.614.187-.113.362-.182 1.447-.217 1.081-.035 3.045-.038 6.788-.039 2.891 0 4.876.011 6.171.037.648.014 1.122.03 1.45.052.165.01.292.022.385.035a.743.743 0 01.166.035zM.782 26.724h0c-.49-.224-.716-.747-.678-1.278.038-.53.335-1.038.857-1.232h.006a35.053 35.053 0 01.785-.026c.498-.01 1.205-.02 2.069-.027a814.75 814.75 0 016.645-.031c3.474-.004 5.827.004 7.346.028.76.013 1.31.03 1.686.05.189.01.332.023.437.035a.809.809 0 01.18.035h0c.383.174.627.564.693 1 .066.435-.05.9-.363 1.212l-.382.382h-9.467c-3.354 0-5.756-.012-7.35-.037a59.64 59.64 0 01-1.8-.049 9.245 9.245 0 01-.477-.032 1.944 1.944 0 01-.183-.03.085.085 0 01-.003 0h0zm28.842 5.826l-.089.046.089-.046c-.46-.885-1.244-1.674-2.103-2.118-.45-.232-1.124-.377-1.788-.425-.662-.048-1.334 0-1.777.17-2.608.997-3.78 3.865-2.573 6.315.526 1.067 1.19 1.704 2.313 2.221 2.166.998 4.832-.005 5.922-2.217.145-.294.234-.529.286-.826.05-.294.064-.647.063-1.176-.001-.525-.016-.876-.066-1.163a2.53 2.53 0 00-.277-.781zm33.035-.02c-.444-.902-1.208-1.667-2.146-2.15-.462-.238-.94-.334-1.773-.364-.66-.024-1.114-.009-1.52.095-.41.105-.764.296-1.23.61-2.498 1.678-2.76 5.12-.543 7.143 1.793 1.637 4.362 1.637 6.156 0 .526-.48.89-.948 1.123-1.486.232-.538.328-1.14.33-1.883.002-.476-.012-.797-.07-1.085-.059-.29-.16-.541-.327-.88z" fill="#9EC419" stroke="#fff" stroke-width=".2"/></svg>