<svg width="41" height="51" fill="none" xmlns="http://www.w3.org/2000/svg"><path fill-rule="evenodd" clip-rule="evenodd" d="M3.873.129C2.212.547.71 1.969.185 3.624.005 4.193 0 4.767 0 25.491 0 46.216.005 46.79.185 47.358c.386 1.214 1.36 2.396 2.474 3.001 1.283.697.156.657 18.103.628l16.186-.026.616-.23c1.527-.57 2.77-1.86 3.25-3.373.181-.569.186-1.142.186-21.867 0-20.724-.005-21.298-.185-21.867-.48-1.512-1.724-2.803-3.25-3.372l-.617-.23L20.693.004C6.913-.01 4.352.01 3.873.13zM37.024 2.3c.64.256 1.438 1.037 1.72 1.682l.23.525v41.968l-.23.525c-.298.684-1.095 1.441-1.77 1.685-.485.174-1.238.182-16.474.182s-15.99-.008-16.474-.182c-.675-.244-1.472-1.002-1.77-1.685l-.23-.525V25.541c0-20.35.005-20.948.184-21.426.204-.549.77-1.237 1.29-1.569.747-.477.348-.466 17.193-.448 15.207.016 15.889.025 16.331.202zM8.172 6.54c-.281.1-.672.316-.869.478-.44.363-.946 1.119-1.077 1.609-.056.208-.1 1.54-.1 3.079 0 2.496.016 2.757.199 3.262.253.698.89 1.383 1.613 1.733l.551.267H32.51l.546-.264a3.342 3.342 0 001.536-1.538c.232-.487.234-.515.234-3.531 0-2.98-.005-3.05-.221-3.469-.341-.66-.852-1.183-1.452-1.487l-.546-.278-11.962-.022c-11.39-.021-11.987-.014-12.473.16zm24.046 2.047c.588.254.63.461.63 3.102 0 2.557-.042 2.788-.55 3.028-.325.152-23.271.152-23.595 0-.51-.24-.551-.47-.551-3.028 0-2.623.043-2.844.609-3.098.465-.21 22.973-.213 23.457-.004zM11.848 21.35c-.495.222-.61.578-.61 1.892v1.152h-1.063c-1.227 0-1.645.13-1.872.585-.191.381-.191.641 0 1.022.227.455.645.586 1.872.586h1.064v1.151c0 1.337.113 1.674.641 1.902.422.182.9.048 1.19-.332.171-.225.195-.404.195-1.489v-1.232h1.064c1.515 0 2.023-.276 2.023-1.097 0-.82-.508-1.096-2.023-1.096h-1.064V23.17c0-1.372-.074-1.584-.637-1.827-.387-.168-.393-.167-.78.007zm13.415 3.187a.996.996 0 00-.615.953c0 .445.222.779.637.958.473.204 6.459.202 6.933-.003.34-.146.63-.587.63-.955 0-.367-.29-.808-.63-.955-.467-.201-6.506-.2-6.955.002zM8.762 34.11c-.322.145-.61.594-.61.953 0 .368.187.617 1.433 1.917l1.218 1.271-1.218 1.271c-.67.699-1.266 1.369-1.325 1.489-.375.762.397 1.699 1.18 1.432.187-.064.8-.614 1.559-1.4l1.251-1.297 1.255 1.291c.691.71 1.382 1.34 1.535 1.399.626.241 1.313-.295 1.313-1.026 0-.383-.063-.467-1.322-1.78l-1.322-1.379 1.322-1.379c1.26-1.313 1.322-1.397 1.322-1.78 0-.73-.687-1.267-1.313-1.026-.153.06-.844.689-1.534 1.399l-1.256 1.29-1.205-1.256c-1.044-1.089-1.61-1.546-1.9-1.53a2.091 2.091 0 00-.383.141zm16.503-.002a.995.995 0 00-.616.953c0 .445.222.779.637.958.473.204 6.459.202 6.933-.003.34-.147.63-.587.63-.955 0-.367-.29-.808-.63-.955-.467-.201-6.506-.2-6.955.002zm0 6.38a.996.996 0 00-.616.953c0 .445.222.778.637.957.473.205 6.459.203 6.933-.002.34-.147.63-.587.63-.955s-.29-.808-.63-.955c-.467-.201-6.506-.2-6.955.002z" fill="#9EC419"/></svg>