<svg width="54" height="54" fill="none" xmlns="http://www.w3.org/2000/svg"><path fill-rule="evenodd" clip-rule="evenodd" d="M4.781 4.78L0 9.563.027 30.83.055 52.1l.228.422c.27.498.787 1.007 1.303 1.281.355.19.958.197 15.993.197h15.624l.43-.23c.622-.333 1.168-.988 1.359-1.63.102-.345.164-.964.164-1.64v-1.088l.29-.06c1.664-.339 2.964-.848 4.317-1.692 1.222-.761 1.345-.786 3.986-.786h2.338l.205.38c.291.542.96 1.077 1.573 1.26.743.22 3.522.214 4.275-.01.642-.19 1.297-.736 1.63-1.358l.23-.43V36.054c0-10.381-.005-10.673-.207-11.08a3.624 3.624 0 00-.611-.81c-.642-.622-1.103-.725-3.239-.724-1.72.001-1.893.019-2.383.247-.552.258-1.244.933-1.373 1.339-.073.23-.105.236-1.04.172-1.124-.078-2.422-.372-3.362-.763-.365-.152-1.994-.792-3.62-1.423l-2.956-1.147-.053-9.901c-.05-9.243-.065-9.93-.243-10.324-.239-.531-.741-1.06-1.288-1.355l-.422-.229-11.82-.028L9.563 0 4.78 4.78zm28.232-2.727l.296.255.028 9.404c.015 5.173.009 9.405-.015 9.405-.023 0-.867-.319-1.875-.707-1.764-.68-1.87-.708-2.783-.712-.854-.005-1.022.029-1.658.329-.795.376-1.541 1.061-1.88 1.726-.125.244-1.066 2.636-2.09 5.314l-1.864 4.87-.002.955c-.002.895.024 1.008.397 1.763.464.939.973 1.431 1.977 1.913.611.294.79.33 1.636.33.848 0 1.026-.037 1.657-.335.782-.37 1.54-1.06 1.865-1.694.116-.227.624-1.502 1.13-2.834.506-1.331.939-2.442.961-2.468.023-.026.563.21 1.2.524l1.157.572v.985c0 1.287.229 2.285.793 3.461.603 1.257 1.617 2.258 2.923 2.885.818.393 2.145.752 2.78.752.338 0 .894-.525.894-.843 0-.495-.4-.943-.849-.948-.147-.002-.543-.075-.879-.163-2.668-.695-4.007-2.708-3.832-5.762.06-1.045.048-1.152-.159-1.415-.276-.351-4.096-2.27-4.519-2.27a.955.955 0 00-.52.185c-.145.118-.642 1.277-1.392 3.246-.642 1.683-1.283 3.23-1.425 3.438-.868 1.271-2.907 1.172-3.699-.18-.574-.979-.587-.921 1.485-6.376 1.025-2.698 1.964-5.052 2.087-5.231.449-.656 1.36-1.07 2.096-.952.365.058 9.259 3.434 11.722 4.449 1.657.683 3.447 1.097 4.767 1.102l.501.002V45.08h-2.366c-2.803 0-3.075.06-4.734 1.038-1.169.689-1.804.965-2.939 1.28l-.729.202v-8.237l-.309-.309c-.364-.364-.815-.405-1.184-.106l-.249.201-.053 6.3-.052 6.3-.296.255-.297.254H2.414l-.309-.308-.308-.309v-40.87h3.392c2.355 0 3.525-.04 3.827-.128.58-.171 1.454-1.046 1.626-1.626.089-.301.128-1.472.128-3.827V1.798h21.946l.297.255zM8.975 5.814v2.644l-.259.26-.259.259h-5.34L6.02 6.074C7.615 4.477 8.933 3.17 8.95 3.17c.014 0 .026 1.19.026 2.643zm-3.27 8.86c-.478.48-.347 1.18.269 1.438.311.13.882.153 3.212.127l2.834-.031.272-.256c.362-.34.375-.93.028-1.257-.24-.224-.307-.229-3.325-.229-2.927 0-3.092.01-3.29.209zm8.99.036a.886.886 0 00.042 1.242l.273.256h15.098l.254-.296c.333-.387.331-.851-.004-1.187l-.26-.259H14.925l-.23.244zm-8.781 4.326c-.558.283-.654 1.012-.19 1.444.226.211.341.214 7.79.214 7.45 0 7.565-.003 7.791-.214.465-.432.369-1.161-.19-1.444-.384-.194-14.817-.194-15.201 0zm-.22 4.711c-.401.402-.4.777.005 1.183l.313.313 3.075-.031 3.074-.031.202-.25c.287-.355.262-.914-.058-1.233l-.259-.259H6.003l-.308.308zm9.03-.049c-.32.32-.345.878-.058 1.234l.202.249 3.15.03c1.733.018 3.258.005 3.39-.028.662-.166.885-.998.398-1.485l-.259-.259h-6.564l-.259.26zm37.226 1.844l.308.309V46.23l-.255.295-.254.297H50c-1.679 0-1.758-.01-1.989-.24l-.24-.241V25.743l.296-.255c.285-.245.355-.254 1.934-.254h1.639l.309.308zM5.705 28.187c-.477.477-.347 1.18.265 1.436.32.133 1.357.152 7.135.126l6.762-.029.255-.296c.333-.387.331-.851-.005-1.187l-.259-.259h-6.972c-6.801 0-6.977.005-7.18.209zm.209 4.362c-.558.282-.654 1.011-.19 1.444.22.204.362.214 3.257.214 2.903 0 3.039-.01 3.305-.22a.645.645 0 00.279-.571c0-.967-.132-1.004-3.558-1.002-2.069 0-2.9.037-3.093.135zm9.026-.015c-.343.187-.475.421-.475.84 0 .301.066.447.278.614.258.203.416.219 2.169.219 1.867 0 1.894-.004 2.15-.26.363-.363.344-.833-.05-1.226l-.308-.309-1.777.003c-1.08.002-1.859.049-1.987.119zM5.695 37.26c-.402.401-.4.777.002 1.18l.31.31 7.511-.028 7.51-.029.203-.25a.95.95 0 00-.058-1.233l-.259-.259H6.003l-.308.309zm.01 4.44c-.478.478-.347 1.18.269 1.437.311.13.882.152 3.212.127l2.834-.032.272-.255c.362-.34.375-.931.028-1.257-.24-.225-.307-.23-3.325-.23-2.927 0-3.092.011-3.29.21zm8.99.035a.886.886 0 00.042 1.242l.273.255h15.098l.254-.296c.333-.387.331-.85-.004-1.186l-.26-.26H14.925l-.23.245zM5.913 46.06c-.558.282-.654 1.011-.19 1.444.226.21.341.214 7.79.214 7.45 0 7.565-.003 7.791-.214.465-.433.369-1.162-.19-1.444-.205-.104-1.895-.134-7.6-.134s-7.396.03-7.601.134zm17.833.172c-.394.394-.413.864-.05 1.227l.26.259h6.142l.259-.26c.363-.362.344-.832-.05-1.226L30 45.924h-5.945l-.308.309z" fill="#9EC419"/></svg>