<svg width="45" height="47" fill="none" xmlns="http://www.w3.org/2000/svg"><path fill-rule="evenodd" clip-rule="evenodd" d="M19.326 4.518c-6.298 2.498-11.58 4.64-11.737 4.761-.965.74-.895 2.32.129 2.895.317.178 1.371.196 14.79.247l14.45.056.396.31c.217.17.456.42.53.556.079.144.157.868.19 1.755.055 1.45.07 1.525.369 1.929.389.523.936.77 1.55.7.566-.067 1.188-.529 1.395-1.038.18-.444.205-2.607.04-3.502-.34-1.846-1.792-3.504-3.581-4.09-.215-.071-.773-.165-1.238-.209l-.847-.079-1.575-4.046C32.752 1.078 32.576.688 32.21.385c-.84-.699-.147-.92-12.885 4.133zM7.03 1.915c-1.664.35-3.041 1.094-4.297 2.32-.948.925-1.68 2.02-2.11 3.158C-.017 9.094 0 8.603 0 23.98c0 15.251-.014 14.86.585 16.49.82 2.233 2.748 4.237 4.905 5.098 1.661.662 1.114.641 16.842.641 9.354 0 14.622-.04 15-.113 1.983-.387 3.72-2.171 4.096-4.21.06-.328.11-1.887.11-3.462v-2.865l1.172-.038c1.097-.035 1.198-.058 1.58-.358.724-.567.71-.438.71-6.737 0-6.3.014-6.17-.71-6.737l-.41-.32H29.802l-.793.297c-1.111.417-1.883.919-2.712 1.762-.82.835-1.31 1.634-1.717 2.793-.252.718-.286.983-.286 2.205s.035 1.488.286 2.205c.4 1.143.89 1.937 1.716 2.787.824.846 1.594 1.348 2.713 1.768l.794.298 4.137.035 4.138.035v2.83c0 3.177-.034 3.363-.71 3.893l-.409.32-14.338.029c-9.372.019-14.543-.01-14.932-.084-1.423-.27-2.977-1.452-3.618-2.753-.634-1.285-.608-.61-.608-15.809 0-12.013.022-14.046.161-14.594.44-1.734 1.621-3.076 3.324-3.776.507-.208.864-.241 3.176-.296l2.605-.062.408-.32c.943-.74.943-2.066 0-2.805l-.408-.32-2.497-.02c-1.728-.014-2.713.025-3.2.128zm24.1 4.554c.495 1.271.88 2.33.857 2.354-.023.024-3.152.03-6.953.015l-6.912-.029 5.948-2.354c3.271-1.295 5.996-2.342 6.054-2.326.058.016.51 1.069 1.006 2.34zM41.538 28.43v3.561l-5.652-.032-5.652-.033-.564-.305a3.783 3.783 0 01-1.622-1.671c-.251-.498-.293-.714-.293-1.525 0-.81.042-1.027.293-1.524.486-.962 1.355-1.692 2.295-1.928.178-.045 2.77-.087 5.76-.093l5.435-.012v3.562z" fill="#9EC419"/></svg>