<svg width="47" height="47" fill="none" xmlns="http://www.w3.org/2000/svg"><path d="M11.152 3.282l.098.02c.164-.775.518-1.416 1.108-2.002.573-.568 1.138-.89 1.896-1.078a1.55 1.55 0 01.23-.028c.12-.01.284-.017.498-.025a84.685 84.685 0 011.933-.037c1.76-.018 4.536-.027 8.772-.03 5.35-.004 8.1-.004 9.554.017.728.011 1.129.028 1.366.052.234.024.303.054.372.09l.004.002a355.084 355.084 0 018.237 8.111c.448.46.826.853 1.097 1.142.135.145.244.264.322.352a3.248 3.248 0 01.124.153s0 0 0 0a.543.543 0 01.035.154c.013.095.024.234.034.443a66 66 0 01.044 2.257c.02 2.297.024 6.424.024 13.88 0 5.93-.007 10.086-.024 12.801a246.921 246.921 0 01-.032 3.036c-.007.34-.014.6-.022.786-.008.19-.016.292-.024.326-.14.657-.559 1.45-1.034 1.957l.073.068-.073-.068c-.484.515-1.418 1.02-2.147 1.158a3.203 3.203 0 01-.335.025c-.183.007-.436.014-.767.02-.66.013-1.627.022-2.952.028-2.65.011-6.731.01-12.658 0l-16.166-.032-.818-.195-.024.097.024-.097c-2.596-.62-4.45-1.643-6.222-3.43-.556-.56-1.214-1.325-1.462-1.696C.06 38.275-.48 34.388.737 30.744c.638-1.908 1.474-3.25 2.962-4.75 1.843-1.857 3.968-2.99 6.488-3.46l.881-.163.082-.015V13.02c0-3.225.008-5.575.024-7.16.009-.793.02-1.394.032-1.818.007-.212.014-.38.021-.504.008-.126.016-.202.023-.237l-.098-.02zm33.183 8.65v-.1h-4.16c-1.945 0-2.96-.002-3.534-.026a3.92 3.92 0 01-.578-.053.928.928 0 01-.266-.095 1.169 1.169 0 01-.506-.503.923.923 0 01-.095-.265 3.875 3.875 0 01-.053-.575c-.024-.572-.026-1.584-.026-3.521V2.649H24.946l-10.07.001h-.029l-.024.015-.36.217a2.707 2.707 0 01-.125.07l-.007.004a1.68 1.68 0 00-.111.062.62.62 0 00-.211.199c-.116.179-.18.476-.22 1.056-.07 1.017-.07 2.971-.07 6.869v1.905l-.004 9.242v.087l.086.012.438.06c1.84.256 3.94 1.12 5.482 2.252l.059-.08-.06.08.48.353.027.02h9.627c4.718 0 7.117 0 8.381.024 1.272.024 1.378.071 1.532.15.185.094.356.263.481.466.125.204.2.432.2.637 0 .206-.075.434-.2.637a1.27 1.27 0 01-.481.467c-.155.078-.263.126-1.371.15-1.103.023-3.178.024-7.247.024-2.283 0-4.358.005-5.863.014-.752.005-1.362.01-1.784.016a36.276 36.276 0 00-.633.016.403.403 0 00-.04.005c-.003.001-.012.003-.022.008a.1.1 0 00-.058.091c0 .02.006.038.007.041a.209.209 0 00.004.01l.005.013.026.056.09.17c.075.14.177.322.29.518l.087-.05-.087.05c.675 1.168 1.29 2.931 1.474 4.23l.061.436.013.086h7.408c3.579 0 5.41 0 6.39.024.985.024 1.095.071 1.25.15.185.094.356.263.481.466.125.204.2.432.2.637 0 .206-.075.434-.2.637a1.27 1.27 0 01-.481.467c-.155.078-.265.125-1.249.149-.98.024-2.808.025-6.383.025H24.74l-.016.081-.164.878c-.458 2.441-1.595 4.589-3.386 6.394l-.934.941-.169.17h11.653c5.628 0 8.483 0 9.976-.023.746-.012 1.156-.03 1.403-.056.123-.013.21-.03.278-.049a.875.875 0 00.165-.067 1.37 1.37 0 00.593-.591.774.774 0 00.069-.176c.02-.076.035-.178.048-.334.027-.31.044-.85.056-1.857.023-2.017.024-5.922.024-13.656V11.933zm-21.39 15.822v.001h0zM42.252 9.278h.242l-.171-.171-2.211-2.204a438.294 438.294 0 00-2.052-2.031 16.442 16.442 0 00-.194-.184.103.103 0 00-.06-.018.1.1 0 00-.092.061l-.006.02a35.523 35.523 0 00-.018.664c-.004.4-.007.952-.007 1.559v2.304h4.569zM19.26 27.814l.07-.07c-1.264-1.261-2.817-2.13-4.656-2.607-.414-.107-1.117-.182-1.821-.215-.704-.032-1.422-.021-1.864.046l.016.1-.016-.1c-3.28.505-6.267 2.815-7.546 5.838-.583 1.375-.738 2.2-.73 3.855.003.802.03 1.343.127 1.867.098.524.266 1.027.548 1.754.875 2.259 3.098 4.473 5.366 5.345.742.285 1.245.453 1.773.55.528.095 1.076.118 1.906.118.831 0 1.38-.023 1.907-.119.528-.096 1.031-.264 1.773-.549 2.268-.872 4.49-3.086 5.366-5.346.286-.739.455-1.24.551-1.766.096-.526.12-1.072.12-1.9 0-1.246-.034-1.651-.194-2.233-.517-1.882-1.367-3.385-2.625-4.639l-.07.07zm-8.832 8.845l.071.069.07-.07 2.788-2.767c.766-.76 1.494-1.468 2.049-1.995.277-.264.511-.482.685-.639a7.92 7.92 0 01.278-.24.462.462 0 01.028-.02h0c.577-.298 1.362-.045 1.661.539.112.218.165.41.166.597a1.22 1.22 0 01-.158.58 1.063 1.063 0 01-.099.128 9.357 9.357 0 01-.236.266c-.198.215-.469.5-.79.831-.64.663-1.48 1.51-2.325 2.35-.845.84-1.696 1.674-2.36 2.31a45 45 0 01-.833.78 9.269 9.269 0 01-.265.232.998.998 0 01-.124.095l.044.09-.044-.09c-.362.18-.726.173-1.116-.03l-.046.09.046-.09a1.732 1.732 0 01-.24-.178 12.136 12.136 0 01-.414-.368 36.48 36.48 0 01-1.09-1.053 38.78 38.78 0 01-1.05-1.088c-.145-.158-.27-.299-.364-.412a1.642 1.642 0 01-.174-.233c-.518-1.035.642-2.194 1.682-1.675a1.3 1.3 0 01.173.12c.081.063.18.146.292.243.223.194.492.442.75.697l.946.93zm7.175-18.574c0-.198.074-.426.198-.631a1.27 1.27 0 01.464-.468c.072-.038.137-.068.356-.093.224-.024.6-.042 1.289-.053 1.377-.024 3.988-.026 9.097-.028 5.144-.002 7.755-.002 9.125.02 1.378.023 1.482.071 1.636.15.185.094.356.263.481.466.125.204.2.432.2.637 0 .206-.075.434-.2.637a1.27 1.27 0 01-.481.467c-.154.078-.259.126-1.635.15-1.368.023-3.974.024-9.107.024-5.133 0-7.74 0-9.107-.024-1.377-.024-1.481-.072-1.635-.15a1.27 1.27 0 01-.481-.467 1.256 1.256 0 01-.2-.637z" fill="#9EC419" stroke="#fff" stroke-width=".2"/></svg>