<svg width="41" height="51" viewBox="0 0 41 51" fill="none" xmlns="http://www.w3.org/2000/svg">
<path fill-rule="evenodd" clip-rule="evenodd" d="M3.87281 0.12896C2.21168 0.546543 0.71041 1.96955 0.185417 3.62413C0.00482361 4.19304 0 4.76673 0 25.4912C0 46.2157 0.00482361 46.7894 0.185417 47.3583C0.570527 48.572 1.54498 49.7543 2.65873 50.359C3.9415 51.0555 2.81501 51.0164 20.7621 50.9872L36.9482 50.9609L37.5644 50.7309C39.0909 50.1612 40.3347 48.8706 40.8146 47.3583C40.9952 46.7894 41 46.2157 41 25.4912C41 4.76673 40.9952 4.19304 40.8146 3.62413C40.3347 2.1119 39.0909 0.821276 37.5644 0.251574L36.9482 0.0215992L20.6929 0.00425391C6.91337 -0.0103999 4.35159 0.00854038 3.87281 0.12896ZM37.0241 2.30001C37.6637 2.5564 38.4623 3.33724 38.7443 3.9821L38.9741 4.50745V25.4912V46.475L38.7443 47.0004C38.4456 47.6835 37.6486 48.4414 36.9735 48.6847C36.4891 48.8591 35.736 48.8675 20.5 48.8675C5.26401 48.8675 4.51087 48.8591 4.02649 48.6847C3.35139 48.4414 2.55445 47.6835 2.25568 47.0004L2.02588 46.475V25.5411C2.02588 5.19089 2.031 4.59337 2.20976 4.11458C2.41447 3.56612 2.98046 2.87809 3.49976 2.54643C4.24712 2.06914 3.84802 2.07961 20.6929 2.09785C35.9001 2.1143 36.5816 2.12267 37.0241 2.30001ZM8.17154 6.53963C7.89062 6.64042 7.49991 6.85554 7.30331 7.01792C6.8634 7.38118 6.35722 8.13669 6.22554 8.62675C6.16958 8.83459 6.12675 10.1673 6.12646 11.7059C6.12588 14.2022 6.1418 14.4625 6.32471 14.9677C6.57756 15.666 7.21484 16.3508 7.9376 16.7009L8.48941 16.9681H20.5H32.5106L33.0555 16.7042C33.7193 16.3826 34.2801 15.8212 34.5921 15.1661C34.824 14.6794 34.8259 14.6507 34.8259 11.635C34.8259 8.65586 34.8214 8.58588 34.6047 8.1664C34.2637 7.50648 33.7528 6.98293 33.1532 6.6786L32.6071 6.40147L20.6447 6.37904C9.25423 6.35761 8.65795 6.36528 8.17154 6.53963ZM32.2179 8.58667C32.8061 8.84067 32.8482 9.04822 32.8482 11.6894C32.8482 14.2462 32.8062 14.4771 32.2972 14.7167C31.9732 14.8693 9.02685 14.8693 8.70281 14.7167C8.19383 14.4771 8.15176 14.2462 8.15176 11.6894C8.15176 9.06636 8.19527 8.84516 8.76098 8.59096C9.22606 8.38192 31.7341 8.37783 32.2179 8.58667ZM11.848 21.3507C11.3534 21.573 11.2388 21.929 11.2388 23.2433V24.3947H10.1746C8.94823 24.3947 8.53041 24.5254 8.30284 24.9801C8.11202 25.3614 8.11202 25.621 8.30284 26.0024C8.53041 26.4571 8.94823 26.5878 10.1746 26.5878H11.2388V27.7391C11.2388 29.0765 11.3523 29.4129 11.8805 29.6409C12.3022 29.823 12.7803 29.6894 13.0702 29.3085C13.2414 29.0836 13.2647 28.9053 13.2647 27.8204V26.5878H14.329C15.8438 26.5878 16.3518 26.3123 16.3518 25.4912C16.3518 24.6701 15.8438 24.3947 14.329 24.3947H13.2647V23.1709C13.2647 21.7991 13.1907 21.5867 12.6281 21.3437C12.241 21.1765 12.2353 21.1767 11.848 21.3507ZM25.2635 24.5379C24.8667 24.7164 24.6482 25.0549 24.6482 25.4912C24.6482 25.9362 24.8699 26.2697 25.2848 26.4488C25.7582 26.6532 31.7435 26.6509 32.2179 26.4461C32.5572 26.2996 32.8482 25.8588 32.8482 25.4912C32.8482 25.1237 32.5572 24.6829 32.2179 24.5364C31.751 24.3348 25.7122 24.3362 25.2635 24.5379ZM8.76098 34.1104C8.43896 34.2551 8.15176 34.7041 8.15176 35.0626C8.15176 35.431 8.33757 35.6797 9.58377 36.98L10.8019 38.251L9.58377 39.522C8.91378 40.221 8.3175 40.8909 8.25865 41.0107C7.88425 41.7734 8.6565 42.7098 9.43965 42.4428C9.62574 42.3793 10.2382 41.8287 10.9976 41.0422L12.2491 39.7462L13.5045 41.0372C14.1951 41.7472 14.8856 42.3767 15.0392 42.4358C15.6652 42.6771 16.3518 42.1408 16.3518 41.4105C16.3518 41.0273 16.2893 40.9431 15.0297 39.6296L13.7077 38.251L15.0297 36.8723C16.2893 35.5589 16.3518 35.4746 16.3518 35.0914C16.3518 34.3611 15.6652 33.8248 15.0392 34.0662C14.8856 34.1253 14.1951 34.7547 13.5045 35.4648L12.2491 36.7559L11.0445 35.4994C10.0003 34.4102 9.43328 33.9534 9.14367 33.9684C9.10219 33.9706 8.92999 34.0345 8.76098 34.1104ZM25.2635 34.1078C24.8667 34.2862 24.6482 34.6247 24.6482 35.061C24.6482 35.506 24.8699 35.8395 25.2848 36.0186C25.7582 36.223 31.7435 36.2207 32.2179 36.0159C32.5572 35.8694 32.8482 35.4286 32.8482 35.061C32.8482 34.6935 32.5572 34.2527 32.2179 34.1062C31.751 33.9046 25.7122 33.906 25.2635 34.1078ZM25.2635 40.4876C24.8667 40.6661 24.6482 41.0046 24.6482 41.4409C24.6482 41.8859 24.8699 42.2194 25.2848 42.3985C25.7582 42.6028 31.7435 42.6006 32.2179 42.3958C32.5572 42.2493 32.8482 41.8085 32.8482 41.4409C32.8482 41.0734 32.5572 40.6326 32.2179 40.486C31.751 40.2845 25.7122 40.2859 25.2635 40.4876Z" fill="#9EC419"/>
</svg>
