<svg width="66" height="59" viewBox="0 0 66 59" fill="none" xmlns="http://www.w3.org/2000/svg">
<path fill-rule="evenodd" clip-rule="evenodd" d="M23.1842 1.12739C22.6576 1.74751 20.1882 4.68992 17.6966 7.66622C12.8772 13.4232 12.9049 13.3816 13.3722 14.153C13.6849 14.6694 24.0645 22.2947 24.565 22.3757C24.8534 22.4225 25.0706 22.3668 25.2975 22.1882C25.475 22.0486 27.1263 19.898 28.9672 17.4094C30.808 14.9207 32.3471 12.8848 32.3875 12.8853C32.4786 12.8863 35.6622 18.559 35.6021 18.6131C35.5781 18.6347 35.0836 18.8896 34.5033 19.1793C33.3702 19.7452 33.0416 20.0757 33.0416 20.6496C33.0416 21.4247 33.1895 21.4783 39.6569 23.0456C43.2706 23.9213 45.8078 24.4762 45.9813 24.4288C46.1407 24.3853 46.3693 24.2738 46.4893 24.1809C46.6961 24.0212 52.4991 14.8499 52.9735 13.9334C53.2289 13.4401 53.1663 13.0032 52.7859 12.6235C52.4356 12.2738 51.9421 12.3041 50.7947 12.7451L49.8163 13.1212L49.6408 12.7773C49.5442 12.5882 48.2612 9.76638 46.7895 6.50662C45.3179 3.24687 43.9938 0.449408 43.847 0.289899L43.5802 0H33.8611H24.1418L23.1842 1.12739ZM45.2617 8.56813C46.8599 12.1113 48.2587 15.1126 48.3704 15.2377C48.482 15.3628 48.7283 15.5078 48.9175 15.5598L49.2616 15.6545L47.2502 18.9104C45.2602 22.1313 45.2345 22.1656 44.8514 22.0988C44.6385 22.0618 42.8843 21.6482 40.9534 21.1799L37.4425 20.3282L37.9051 19.8927C38.3038 19.5173 38.3578 19.398 38.2974 19.0265C38.259 18.7895 37.2842 16.9192 36.1314 14.8703C34.2132 11.4609 29.1696 2.2129 29.1696 2.10492C29.1696 2.0798 32.1366 2.07413 35.7629 2.09256L42.3563 2.12593L45.2617 8.56813ZM28.9963 6.37778C30.2216 8.64543 31.2265 10.5774 31.2294 10.6711C31.2366 10.9054 24.5254 19.6573 24.3719 19.6138C24.3042 19.5946 22.3639 18.1812 20.0601 16.4727C16.3886 13.7501 15.8916 13.3408 16.0349 13.1579C16.1247 13.0431 18.2228 10.5259 20.6973 7.56405L25.1966 2.17875L25.9826 2.21676L26.7685 2.25477L28.9963 6.37778ZM52.0147 25.6181C48.8558 27.3743 46.1393 28.8949 45.9782 28.9972C45.817 29.0996 45.6309 29.3789 45.5647 29.6179C45.418 30.1469 45.2522 29.8064 48.5807 35.8077C49.9727 38.3174 51.0971 40.3835 51.0791 40.3989C51.0456 40.428 44.8464 40.9741 44.561 40.973C44.4432 40.9725 44.3997 40.6397 44.3997 39.7399C44.3997 39.062 44.337 38.3904 44.2603 38.2473C44.0642 37.8818 43.327 37.5946 42.9538 37.7384C42.5407 37.8978 42.525 37.9165 38.4743 43.0951C35.2857 47.1715 34.8486 47.7852 34.8486 48.1857C34.8486 48.5675 35.3819 49.4323 38.1485 53.536C39.9633 56.228 41.5928 58.5612 41.7695 58.7207C42.1576 59.0709 42.7187 59.0943 43.1116 58.7767C43.4198 58.5275 43.6037 57.7591 43.6175 56.6624L43.6253 56.0536L50.7206 56.0182C57.6694 55.9835 57.8213 55.9773 58.0794 55.7195C58.5045 55.2951 65.9948 38.6683 66 38.1378C66.0057 37.5562 59.026 23.1493 58.5252 22.7088C58.344 22.5492 58.0972 22.4201 57.9769 22.4218C57.8567 22.4234 55.1737 23.8618 52.0147 25.6181ZM11.4226 23.0064C9.22197 23.0955 7.08485 23.1739 6.6735 23.1803C5.77635 23.1942 5.29182 23.5607 5.29182 24.2253C5.29182 24.8181 5.43754 25.0051 6.43266 25.6901L7.33679 26.3124L5.94865 28.5852C0.932135 36.7994 0 38.3837 0 38.6955C0 38.9177 0.678515 40.0318 1.99282 41.9673C3.08888 43.5815 5.56596 47.2503 7.49761 50.1203C9.42925 52.9903 11.157 55.498 11.337 55.6928L11.6645 56.0471H20.201H28.7373L29.0503 55.7147L29.3632 55.3823L29.3989 48.9034C29.421 44.8846 29.3864 42.2981 29.3078 42.0917C29.0384 41.3842 29.0116 41.3802 22.7823 41.1014C19.5979 40.9587 16.9702 40.8197 16.9427 40.7924C16.9022 40.7518 19.6847 35.0814 19.815 34.9389C19.8363 34.9157 20.309 35.1579 20.8654 35.4773C21.4219 35.7967 22.0224 36.0924 22.1998 36.1344C22.6262 36.2353 23.3288 35.8003 23.4375 35.3681C23.5529 34.9087 19.1871 23.2659 18.7971 22.9931C18.4743 22.7675 17.257 22.7697 11.4226 23.0064ZM18.8394 28.6356C19.5782 30.6376 20.2069 32.3475 20.2366 32.4355C20.2763 32.5531 20.1669 32.5439 19.8238 32.4009C18.9225 32.025 18.7944 32.1818 16.8968 35.9838C14.9981 39.7879 9.90823 49.4751 9.80923 49.473C9.77374 49.4722 8.09946 47.0362 6.08844 44.0595L2.4323 38.6474L6.20447 32.5625C9.96708 26.4928 10.1727 26.099 9.89184 25.4962C9.80497 25.3096 10.0946 25.2749 12.6738 25.164C14.2572 25.0959 15.9901 25.0301 16.5246 25.0179L17.4963 24.9957L18.8394 28.6356ZM60.6695 31.6996L63.8634 38.197L63.5483 38.8176C63.375 39.159 63.1629 39.4604 63.0771 39.4872C62.6956 39.6068 53.511 40.1969 53.4339 40.1067C53.304 39.955 48.1383 30.5291 48.106 30.385C48.0743 30.2428 57.1799 25.104 57.3587 25.1634C57.4229 25.1848 58.9127 28.126 60.6695 31.6996ZM42.574 42.8713C42.6594 43.0299 42.8847 43.1987 43.0747 43.2462C43.2646 43.2939 45.8331 43.1213 48.7822 42.8628C54.8914 42.3272 62.0658 41.8152 62.1589 41.9081C62.1934 41.9425 61.0141 44.6436 59.5382 47.9104L56.8548 53.8502L49.7173 53.8535C42.1929 53.8569 42.0415 53.868 41.7221 54.4376C41.6412 54.5821 41.0578 53.8069 39.453 51.4231L37.2928 48.2142L39.7799 45.0302C42.1025 42.0569 42.272 41.8707 42.3428 42.2147C42.3847 42.4173 42.4887 42.7127 42.574 42.8713ZM21.49 43.2909C23.2647 43.3614 25.2539 43.4539 25.9106 43.4963L27.1045 43.5734V48.715V53.8568H19.8738H12.6429L11.9393 52.7791L11.2356 51.7015L13.5108 47.3552L15.786 43.0089L17.0247 43.0858C17.7059 43.1281 19.7153 43.2203 21.49 43.2909Z" fill="#9EC419"/>
</svg>
