<svg width="54" height="54" viewBox="0 0 54 54" fill="none" xmlns="http://www.w3.org/2000/svg">
<path fill-rule="evenodd" clip-rule="evenodd" d="M4.78107 4.78093L0 9.56185L0.0273421 30.8308L0.0547898 52.0998L0.283028 52.5221C0.55212 53.0198 1.06972 53.5291 1.58552 53.8034C1.94108 53.9926 2.54376 54 17.5791 54H33.2031L33.6326 53.7701C34.2555 53.4367 34.8009 52.7825 34.9919 52.1397C35.0941 51.7954 35.1561 51.1758 35.1561 50.4993V49.4119L35.4464 49.3527C37.1101 49.0132 38.4103 48.5035 39.7631 47.6603C40.9854 46.8985 41.1079 46.8744 43.7491 46.8744H46.0872L46.2922 47.2549C46.5834 47.7959 47.2527 48.3312 47.8652 48.5131C48.6083 48.7337 51.3868 48.7283 52.1397 48.5047C52.7825 48.3138 53.4367 47.7684 53.7701 47.1455L54 46.716V36.054C54 25.6727 53.9945 25.381 53.7929 24.9742C53.679 24.7445 53.4041 24.3802 53.182 24.1647C52.5403 23.5419 52.0793 23.4389 49.9432 23.44C48.2223 23.441 48.0501 23.4588 47.5604 23.6874C47.0079 23.9452 46.3158 24.6196 46.1869 25.0259C46.1137 25.2567 46.0821 25.2619 45.1468 25.1976C44.023 25.1203 42.7253 24.8259 41.7849 24.4349C41.4196 24.283 39.7906 23.6426 38.1648 23.0119L35.2089 21.8649L35.1561 11.9636C35.1068 2.72062 35.0907 2.03402 34.9132 1.63984C34.6742 1.10875 34.1716 0.579868 33.6254 0.284603L33.2031 0.0563716L21.3826 0.0281858L9.56213 0L4.78107 4.78093ZM33.0125 2.05292L33.3087 2.30765L33.3368 11.7121C33.3522 16.8846 33.3456 21.1166 33.3222 21.1166C33.2988 21.1166 32.4548 20.7984 31.4467 20.4096C29.6835 19.7295 29.5777 19.7024 28.6637 19.6976C27.8102 19.693 27.6417 19.7265 27.0062 20.027C26.2114 20.403 25.4649 21.0881 25.1259 21.7525C25.001 21.9972 24.0602 24.3889 23.0352 27.0671L21.1715 31.937L21.17 32.8925C21.1685 33.7869 21.1939 33.8999 21.5672 34.655C22.0311 35.5937 22.5399 36.0861 23.5437 36.568C24.1553 36.8617 24.3331 36.8974 25.18 36.8974C26.0278 36.8974 26.2063 36.8614 26.8375 36.5629C27.619 36.1932 28.3778 35.5038 28.7016 34.8691C28.8176 34.6418 29.3263 33.3665 29.8323 32.0352C30.3382 30.7038 30.7707 29.5932 30.7933 29.5672C30.816 29.5412 31.3556 29.777 31.9925 30.0913L33.1503 30.6625V31.6483C33.1503 32.935 33.379 33.9332 33.9433 35.1095C34.5459 36.366 35.5599 37.3669 36.8658 37.9942C37.6843 38.3873 39.0108 38.7459 39.6465 38.7459C39.984 38.7459 40.5401 38.2211 40.5401 37.9025C40.5401 37.4076 40.1396 36.9603 39.6913 36.9547C39.5438 36.9528 39.1482 36.8796 38.812 36.7921C36.1438 36.0972 34.805 34.0841 34.9797 31.0303C35.0396 29.9846 35.0275 29.8777 34.8213 29.6155C34.5448 29.2639 30.7253 27.3449 30.3023 27.3449C30.1397 27.3449 29.9055 27.4281 29.7819 27.5296C29.6372 27.6484 29.1403 28.8075 28.3902 30.7757C27.7484 32.4595 27.1073 34.0069 26.9655 34.2144C26.097 35.4854 24.0583 35.3862 23.266 34.0343C22.6922 33.0553 22.6788 33.1128 24.751 27.6579C25.7759 24.9601 26.7149 22.606 26.8377 22.4266C27.2869 21.7707 28.1978 21.3571 28.934 21.4748C29.2986 21.5331 38.1928 24.909 40.6558 25.924C42.3128 26.6068 44.1025 27.0206 45.4226 27.0261L45.9241 27.0282V36.054V45.0798H43.5582C40.7551 45.0798 40.4835 45.1393 38.8238 46.1179C37.6554 46.8066 37.0202 47.0833 35.8851 47.3979L35.1561 47.5999V43.4814V39.363L34.8475 39.0544C34.4828 38.6897 34.0324 38.6491 33.6635 38.9476L33.4143 39.1493L33.3615 45.449L33.3087 51.7487L33.0125 52.0035L32.7162 52.2582H17.565H2.41381L2.10524 51.9496L1.79666 51.641V31.2061V10.7712H5.18898C7.54388 10.7712 8.71421 10.7319 9.01582 10.6428C9.5957 10.4715 10.4702 9.597 10.6416 9.01714C10.7307 8.71554 10.7699 7.54525 10.7699 5.19041V1.79819H21.7431H32.7162L33.0125 2.05292ZM8.97528 5.81441V8.45838L8.71611 8.71744L8.45705 8.9766H5.78734H3.11774L6.01938 6.07357C7.61525 4.4769 8.93326 3.17053 8.94815 3.17053C8.96303 3.17053 8.97528 4.36025 8.97528 5.81441ZM5.70531 14.6745C5.22656 15.1532 5.35768 15.8546 5.97398 16.1121C6.28499 16.2421 6.85632 16.2646 9.1862 16.239L12.0201 16.2078L12.2923 15.9519C12.654 15.6119 12.6671 15.0213 12.3203 14.6955C12.0809 14.4706 12.013 14.466 8.99491 14.466C6.06783 14.466 5.90336 14.4764 5.70531 14.6745ZM14.6943 14.7102C14.3672 15.0585 14.3867 15.6225 14.7373 15.9519L15.0096 16.2078H22.5584H30.1071L30.362 15.9116C30.6948 15.5246 30.6931 15.0606 30.3575 14.7251L30.0985 14.466H22.5112H14.9239L14.6943 14.7102ZM5.91381 19.0363C5.35557 19.3187 5.25971 20.0478 5.72389 20.4802C5.95023 20.6911 6.06509 20.6943 13.5147 20.6943C20.9643 20.6943 21.0792 20.6911 21.3055 20.4802C21.7697 20.0478 21.6738 19.3187 21.1156 19.0363C20.7312 18.8418 6.29818 18.8418 5.91381 19.0363ZM5.69455 23.7475C5.29254 24.1495 5.29402 24.5245 5.69919 24.9296L6.0123 25.2428L9.08676 25.2117L12.1612 25.1808L12.363 24.9316C12.6505 24.5761 12.6246 24.0172 12.3054 23.6981L12.0464 23.439H9.02479H6.00312L5.69455 23.7475ZM14.724 23.6981C14.4048 24.0172 14.3789 24.5761 14.6664 24.9316L14.8682 25.1808L18.0182 25.2119C19.7508 25.229 21.2765 25.216 21.4085 25.1828C22.0701 25.0171 22.2933 24.1848 21.8065 23.6981L21.5475 23.439H18.2653H14.983L14.724 23.6981ZM51.9496 25.5422L52.2581 25.8507V36.0399V46.2292L52.0034 46.5254L51.7486 46.8216H50.0005C48.3221 46.8216 48.2429 46.812 48.012 46.5811L47.7715 46.3406V36.0419V25.7431L48.0677 25.4883C48.3533 25.2427 48.4225 25.2336 50.0025 25.2336H51.641L51.9496 25.5422ZM5.70531 28.1868C5.22825 28.6638 5.35768 29.367 5.96966 29.6227C6.28921 29.7561 7.32747 29.7746 13.1054 29.7494L19.8671 29.7201L20.1219 29.4239C20.4547 29.0369 20.453 28.5729 20.1174 28.2374L19.8584 27.9783H12.886C6.08451 27.9783 5.90874 27.9833 5.70531 28.1868ZM5.91381 32.5486C5.35557 32.831 5.25971 33.5601 5.72389 33.9925C5.94358 34.1972 6.08578 34.2066 8.98098 34.2066C11.8838 34.2066 12.0198 34.1976 12.2864 33.9878C12.4879 33.8293 12.5646 33.6716 12.5646 33.4158C12.5646 32.4487 12.4331 32.4117 9.00695 32.4136C6.93845 32.4147 6.10679 32.4509 5.91381 32.5486ZM14.9399 32.5339C14.5971 32.7214 14.4648 32.9554 14.4648 33.3746C14.4648 33.675 14.5311 33.8212 14.743 33.9878C15.0009 34.1907 15.1589 34.2066 16.9119 34.2066C18.7786 34.2066 18.806 34.2033 19.0618 33.9474C19.425 33.5843 19.4061 33.1143 19.0124 32.7206L18.7038 32.412L16.9274 32.4152C15.8467 32.4172 15.0683 32.4636 14.9399 32.5339ZM5.69455 37.2598C5.29339 37.661 5.29413 38.0368 5.69666 38.4394L6.00724 38.75L13.518 38.7216L21.0287 38.6931L21.2306 38.4439C21.5182 38.0885 21.4923 37.5295 21.1731 37.2104L20.9141 36.9513H13.4586H6.00312L5.69455 37.2598ZM5.70531 41.6991C5.22656 42.1778 5.35768 42.8792 5.97398 43.1367C6.28499 43.2667 6.85632 43.2892 9.1862 43.2636L12.0201 43.2324L12.2923 42.9765C12.654 42.6365 12.6671 42.0459 12.3203 41.7201C12.0809 41.4952 12.013 41.4906 8.99491 41.4906C6.06783 41.4906 5.90336 41.501 5.70531 41.6991ZM14.6943 41.7348C14.3672 42.0831 14.3867 42.6471 14.7373 42.9765L15.0096 43.2324H22.5584H30.1071L30.362 42.9362C30.6948 42.5492 30.6931 42.0852 30.3575 41.7497L30.0985 41.4906H22.5112H14.9239L14.6943 41.7348ZM5.91381 46.0609C5.35557 46.3433 5.25971 47.0724 5.72389 47.5048C5.95023 47.7157 6.06509 47.7189 13.5147 47.7189C20.9643 47.7189 21.0792 47.7157 21.3055 47.5048C21.7697 47.0724 21.6738 46.3433 21.1156 46.0609C20.9104 45.9571 19.2197 45.9274 13.5147 45.9274C7.8097 45.9274 6.11903 45.9571 5.91381 46.0609ZM23.7467 46.2329C23.3529 46.6266 23.334 47.0966 23.6973 47.4597L23.9563 47.7189H27.0274H30.0985L30.3575 47.4597C30.7208 47.0966 30.7019 46.6266 30.3081 46.2329L29.9996 45.9243H27.0274H24.0552L23.7467 46.2329Z" fill="#9EC419"/>
</svg>
