<svg width="47" height="47" viewBox="0 0 47 47" fill="none" xmlns="http://www.w3.org/2000/svg">
<path d="M11.1525 3.28179L11.2503 3.30244C11.414 2.52724 11.7683 1.88569 12.3579 1.30049C12.9308 0.731935 13.496 0.410792 14.2541 0.221797C14.2893 0.213017 14.3615 0.203315 14.4842 0.194042C14.6047 0.184934 14.7681 0.176607 14.982 0.169039C15.4095 0.153906 16.0352 0.141914 16.9154 0.132492C18.6756 0.113649 21.4506 0.105108 25.6871 0.102078C31.0363 0.0982663 33.7866 0.097536 35.2413 0.11932C35.9695 0.130224 36.3695 0.146745 36.6074 0.170852C36.8412 0.19453 36.9099 0.224619 36.9791 0.260541C36.9789 0.260426 36.98 0.261 36.9827 0.26276C36.9854 0.264442 36.9888 0.266795 36.9933 0.269957C37.0022 0.276314 37.0136 0.285 37.0277 0.296253C37.0558 0.318749 37.0924 0.349687 37.1373 0.388931C37.2268 0.467324 37.3466 0.576581 37.4926 0.712734C37.7844 0.984909 38.1788 1.36258 38.6413 1.81133C39.5662 2.70874 40.7621 3.88911 41.9512 5.07543C43.1403 6.26175 44.3223 7.4537 45.2197 8.37426C45.6684 8.83459 46.0455 9.22672 46.3167 9.51621C46.4524 9.66103 46.561 9.77962 46.6386 9.86798C46.6774 9.91222 46.7079 9.9482 46.7299 9.97573C46.7409 9.98951 46.7493 10.0006 46.7553 10.0091C46.7608 10.0167 46.763 10.0204 46.7634 10.0212C46.7635 10.0213 46.7635 10.0214 46.7635 10.0212C46.7723 10.0389 46.7855 10.0793 46.7983 10.1754C46.8109 10.2695 46.8222 10.4088 46.8321 10.6182C46.8521 11.0366 46.8663 11.7259 46.8764 12.8747C46.8965 15.1716 46.9 19.2991 46.9 26.7544C46.9 32.6859 46.8927 36.8408 46.8762 39.5564C46.8679 40.9143 46.8572 41.912 46.844 42.5919C46.8374 42.932 46.8302 43.192 46.8223 43.3776C46.8142 43.5676 46.8057 43.6705 46.7985 43.7042C46.6584 44.3609 46.2393 45.1542 45.7638 45.6607L45.8367 45.7291L45.7638 45.6607C45.2799 46.1761 44.3456 46.681 43.6168 46.8191C43.5747 46.8271 43.4683 46.8356 43.2821 46.8436C43.0991 46.8514 42.8457 46.8583 42.5153 46.8645C41.8546 46.8767 40.8877 46.8857 39.5627 46.8915C36.9127 46.9032 32.8316 46.9025 26.9049 46.8912L10.7389 46.8601L9.92068 46.6646L9.89743 46.7619L9.92067 46.6646C7.32499 46.0444 5.47116 45.022 3.69925 43.2358C3.14283 42.6749 2.48461 41.9099 2.2371 41.5389C0.0596714 38.2755 -0.479609 34.3878 0.737748 30.744C1.37523 28.8358 2.21095 27.4949 3.69925 25.9946C5.54249 24.1365 7.66733 23.0036 10.1866 22.5348L11.068 22.3709L11.1497 22.3557V22.2726V13.0205C11.1497 9.79567 11.1575 7.44623 11.1742 5.86073C11.1826 5.06792 11.1932 4.46663 11.2061 4.04262C11.2126 3.83056 11.2197 3.66347 11.2273 3.53922C11.2351 3.41252 11.2431 3.33654 11.2503 3.30245L11.1525 3.28179ZM44.3346 11.9325V11.8325H44.2346H40.175C38.2304 11.8325 37.2144 11.8305 36.6406 11.8065C36.3535 11.7945 36.1822 11.7772 36.0628 11.7532C35.947 11.7299 35.8787 11.7001 35.7969 11.6585C35.5814 11.549 35.401 11.3692 35.2911 11.1547C35.2494 11.0732 35.2196 11.0052 35.1962 10.89C35.1721 10.7711 35.1547 10.6006 35.1426 10.3146C35.1186 9.74298 35.1166 8.73085 35.1166 6.79356V2.74925V2.64925L35.0166 2.64925L24.9459 2.64971L14.8752 2.65017L14.8473 2.65017L14.8235 2.66453L14.4634 2.88172C14.4193 2.90829 14.378 2.93055 14.3375 2.95217L14.3308 2.95573C14.2933 2.97578 14.2553 2.99606 14.2196 3.01783C14.1415 3.06544 14.0695 3.12287 14.009 3.21657C13.8933 3.39562 13.8299 3.69315 13.7899 4.27325C13.7197 5.2895 13.7196 7.24404 13.7193 11.1419C13.7193 11.7313 13.7193 12.3652 13.719 13.0469L13.7151 22.2887L13.7151 22.3758L13.8013 22.3878L14.2392 22.4487C16.0786 22.7044 18.1799 23.5673 19.7206 24.7003L19.7798 24.6197L19.7206 24.7003L20.2006 25.0533L20.2271 25.0727H20.2599H29.8542C34.5718 25.0727 36.9706 25.0735 38.235 25.097C39.5069 25.1206 39.6127 25.1683 39.767 25.2467C39.9518 25.3407 40.1229 25.5103 40.2481 25.7135C40.3733 25.9166 40.4474 26.1449 40.4474 26.3502C40.4474 26.5556 40.3733 26.7838 40.2481 26.987C40.1229 27.1901 39.9518 27.3598 39.767 27.4537C39.6124 27.5322 39.5043 27.5796 38.3958 27.6033C37.2929 27.6268 35.2177 27.6277 31.1487 27.6277C28.8661 27.6277 26.7909 27.6334 25.2863 27.6425C24.534 27.647 23.9241 27.6524 23.5023 27.6584C23.2914 27.6615 23.1271 27.6646 23.0152 27.6679C22.9595 27.6695 22.9159 27.6712 22.8859 27.673C22.8801 27.6733 22.8745 27.6737 22.8692 27.6741C22.8612 27.6747 22.854 27.6753 22.8479 27.6761C22.8433 27.6766 22.836 27.6776 22.8284 27.6793C22.8255 27.6801 22.8167 27.6822 22.8066 27.6869C22.8019 27.6892 22.7911 27.6946 22.7802 27.705C22.7692 27.7154 22.7488 27.7399 22.7488 27.7779C22.7488 27.7984 22.7552 27.8159 22.7563 27.819C22.7574 27.8224 22.7587 27.8258 22.76 27.8292C22.7617 27.8335 22.7635 27.8378 22.7652 27.842C22.7718 27.8571 22.7807 27.876 22.7914 27.8976C22.8129 27.9411 22.8436 27.9996 22.8809 28.0687C22.9556 28.2071 23.0583 28.3904 23.1711 28.5856L23.2577 28.5356L23.1711 28.5856C23.8464 29.7538 24.4604 31.517 24.6446 32.8155L24.7065 33.2517L24.7187 33.3377H24.8055H32.127C35.7058 33.3377 37.5366 33.3387 38.5174 33.3623C39.5022 33.386 39.6123 33.4331 39.767 33.5117C39.9518 33.6056 40.1229 33.7753 40.2481 33.9784C40.3733 34.1816 40.4474 34.4098 40.4474 34.6152C40.4474 34.8205 40.3733 35.0488 40.2481 35.2519C40.1229 35.455 39.9518 35.6247 39.767 35.7186C39.6123 35.7973 39.5022 35.8443 38.5184 35.868C37.5386 35.8916 35.7098 35.8927 32.1351 35.8927H24.8217H24.7387L24.7234 35.9742L24.5589 36.8522C24.1012 39.2932 22.9642 41.441 21.1733 43.2459L20.2392 44.1871L20.0701 44.3576H20.3102H31.723C37.3506 44.3576 40.2061 44.3569 41.6994 44.3335C42.4451 44.3218 42.855 44.3044 43.1017 44.2779C43.2255 44.2647 43.3115 44.2488 43.3799 44.2291C43.4496 44.209 43.4979 44.1857 43.5448 44.1619C43.7978 44.0333 44.0089 43.823 44.138 43.5709C44.1625 43.5231 44.1863 43.474 44.2066 43.3951C44.2263 43.3186 44.242 43.2165 44.2552 43.0611C44.2816 42.7507 44.299 42.2113 44.3107 41.2038C44.3342 39.1872 44.3346 35.2817 44.3346 27.5477V11.9325ZM22.9455 27.7544C22.9449 27.7525 22.9452 27.7529 22.9458 27.7551L22.9455 27.7544ZM42.2512 9.27753H42.4932L42.3218 9.10671L40.111 6.90273C39.5029 6.29655 38.9474 5.74542 38.5422 5.34579C38.3396 5.146 38.1745 4.98395 38.0592 4.87178C38.0015 4.81574 37.956 4.7719 37.9244 4.74196C37.9087 4.72707 37.8959 4.71515 37.8866 4.70675C37.8821 4.70268 37.8775 4.69862 37.8734 4.69526C37.8716 4.69374 37.8683 4.69111 37.8645 4.68842C37.8628 4.6872 37.8589 4.68455 37.8538 4.6818C37.8513 4.68043 37.8467 4.67809 37.8408 4.67587C37.8362 4.67418 37.8232 4.66957 37.8058 4.66957C37.7631 4.66957 37.7377 4.69499 37.7291 4.70521C37.7196 4.71643 37.7148 4.72711 37.713 4.73138C37.709 4.74082 37.7073 4.74902 37.7067 4.75179C37.7052 4.7589 37.7044 4.76591 37.7039 4.77051C37.7028 4.78078 37.7019 4.79417 37.7011 4.80932C37.6995 4.84019 37.698 4.88476 37.6965 4.94094C37.6937 5.05359 37.6911 5.21602 37.689 5.41591C37.6846 5.81584 37.682 6.36721 37.682 6.97355V9.17753V9.27753H37.782H40.0166H42.2512ZM19.2594 27.8139L19.3299 27.7431C18.0648 26.4828 16.512 25.6147 14.6727 25.137C14.2595 25.0298 13.5558 24.9547 12.852 24.9225C12.1479 24.8903 11.4302 24.9005 10.9884 24.9685L11.0036 25.0673L10.9884 24.9685C7.70828 25.4731 4.72139 27.7828 3.44159 30.8061C2.85925 32.1815 2.70355 33.0065 2.71117 34.6615C2.71491 35.4629 2.74166 36.0039 2.83944 36.5279C2.93725 37.0521 3.10536 37.5551 3.38678 38.2815C4.26193 40.5408 6.48491 42.7553 8.75252 43.6271C9.49459 43.9124 9.99795 44.0805 10.5259 44.1763C11.0537 44.272 11.6018 44.2947 12.4324 44.2947C13.263 44.2947 13.8111 44.272 14.3388 44.1763C14.8668 44.0805 15.3702 43.9124 16.1123 43.6271C18.3799 42.7553 20.6029 40.5408 21.478 38.2815C21.7644 37.5422 21.9331 37.0407 22.0293 36.5146C22.1254 35.9888 22.1482 35.4426 22.1482 34.6152C22.1482 33.3688 22.1146 32.9639 21.9547 32.3819C21.4379 30.5001 20.5881 28.9966 19.3299 27.7431L19.2594 27.8139ZM10.4275 36.6586L10.498 36.728L10.5682 36.6583L13.3561 33.8909C14.1223 33.1302 14.8499 32.4227 15.4047 31.8957C15.6821 31.6322 15.916 31.4141 16.0897 31.2573C16.1766 31.1788 16.2479 31.1161 16.3019 31.0709C16.3288 31.0483 16.3508 31.0305 16.3679 31.0176C16.3764 31.0111 16.3832 31.0062 16.3885 31.0026C16.3934 30.9993 16.3957 30.998 16.3961 30.9978L16.3961 30.9978C16.9728 30.6987 17.7584 30.9522 18.0574 31.536C18.1688 31.7536 18.2218 31.9464 18.2229 32.1327C18.224 32.3186 18.1734 32.506 18.0652 32.7129C18.0576 32.7275 18.0274 32.7686 17.9662 32.8408C17.908 32.9095 17.8283 32.999 17.7295 33.1066C17.5322 33.3217 17.2613 33.6068 16.9406 33.9383C16.2992 34.6013 15.4602 35.4481 14.6151 36.2883C13.77 37.1284 12.9194 37.9616 12.2547 38.5971C11.9223 38.915 11.6369 39.183 11.4221 39.3776C11.3146 39.475 11.2255 39.5534 11.1574 39.6103C11.0853 39.6705 11.0457 39.6989 11.0328 39.7052L11.0773 39.7948L11.0328 39.7052C10.671 39.8851 10.3068 39.8776 9.91671 39.6754L9.8707 39.7642L9.91671 39.6754C9.87548 39.6541 9.79463 39.5945 9.67772 39.4967C9.56364 39.4012 9.42225 39.2755 9.26276 39.1285C8.94393 38.8347 8.55533 38.4585 8.1731 38.0761C7.79087 37.6936 7.41575 37.3057 7.1238 36.9884C6.97775 36.8296 6.85313 36.6892 6.75903 36.5764C6.66233 36.4604 6.60475 36.3815 6.58528 36.3427C6.06656 35.3084 7.22698 34.1495 8.26731 34.668C8.29787 34.6833 8.35605 34.7229 8.43962 34.788C8.52099 34.8514 8.62077 34.9343 8.73237 35.0313C8.95548 35.2252 9.2235 35.473 9.48215 35.7277L10.4275 36.6586ZM17.6023 18.0853C17.6023 17.8872 17.6763 17.659 17.7997 17.454C17.9232 17.2489 18.0899 17.0774 18.2643 16.9857C18.3359 16.948 18.4014 16.9176 18.62 16.8933C18.8438 16.8685 19.2197 16.8513 19.909 16.8395C21.2858 16.8158 23.8973 16.8138 29.0055 16.8118C34.1504 16.8099 36.7613 16.8096 38.131 16.8325C39.5094 16.8555 39.6127 16.9034 39.767 16.9818C39.9518 17.0757 40.1229 17.2454 40.2481 17.4485C40.3733 17.6517 40.4474 17.8799 40.4474 18.0853C40.4474 18.2907 40.3733 18.5189 40.2481 18.7221C40.1229 18.9252 39.9518 19.0949 39.767 19.1888C39.6128 19.2671 39.5084 19.315 38.1319 19.3386C36.7641 19.3621 34.158 19.3628 29.0248 19.3628C23.8917 19.3628 21.2856 19.3621 19.9178 19.3386C18.5413 19.315 18.4369 19.2672 18.2827 19.1888C18.0979 19.0949 17.9268 18.9252 17.8016 18.7221C17.6764 18.5189 17.6023 18.2907 17.6023 18.0853Z" fill="#9EC419" stroke="white" stroke-width="0.2"/>
</svg>
