<svg width="45" height="47" viewBox="0 0 45 47" fill="none" xmlns="http://www.w3.org/2000/svg">
<path fill-rule="evenodd" clip-rule="evenodd" d="M19.3255 4.51754C13.0281 7.01574 7.74653 9.15861 7.58871 9.27942C6.62381 10.0183 6.69433 11.5983 7.71787 12.1739C8.0346 12.352 9.08907 12.3697 22.5085 12.4213L36.958 12.4768L37.3538 12.787C37.5714 12.9576 37.8098 13.2077 37.8837 13.3428C37.9626 13.487 38.0412 14.2107 38.0744 15.0976C38.1288 16.5478 38.1432 16.6233 38.4428 17.0266C38.8316 17.5504 39.3789 17.7972 39.993 17.7261C40.5592 17.6605 41.1806 17.1985 41.3877 16.6892C41.5684 16.2449 41.5933 14.0825 41.428 13.1872C41.0873 11.3407 39.636 9.68277 37.847 9.09626C37.6315 9.02557 37.0742 8.93198 36.6087 8.88842L35.7623 8.80906L34.1867 4.76328C32.7516 1.07806 32.5756 0.68783 32.2112 0.384961C31.3712 -0.313695 32.0637 -0.535872 19.3255 4.51754ZM7.03129 1.91487C5.36727 2.26553 3.9898 3.0092 2.73423 4.23468C1.78577 5.1604 1.05474 6.25473 0.624645 7.39263C-0.018443 9.09448 5.47387e-05 8.60277 5.47387e-05 23.9803C5.47387e-05 39.2311 -0.0138996 38.839 0.585162 40.4707C1.40468 42.7029 3.33329 44.7068 5.49048 45.5675C7.15147 46.2301 6.60358 46.2092 22.3325 46.2092C31.6863 46.2092 36.9538 46.1694 37.3315 46.0958C39.3148 45.7093 41.0519 43.9245 41.428 41.8867C41.4888 41.5577 41.5384 39.9994 41.5384 38.4238V35.559L42.7102 35.5213C43.8073 35.4862 43.9078 35.4634 44.2901 35.1635C45.0136 34.596 45 34.7253 45 28.4261C45 22.1263 45.0136 22.256 44.2896 21.6887L43.8808 21.3684H36.8413H29.8017L29.0082 21.6662C27.8968 22.0834 27.1248 22.585 26.2963 23.4285C25.4765 24.2633 24.9851 25.0623 24.5788 26.2215C24.3275 26.9385 24.2931 27.2042 24.2931 28.4261C24.2931 29.648 24.3275 29.9136 24.5788 30.6306C24.9797 31.7742 25.4688 32.5684 26.2955 33.4179C27.1191 34.2641 27.8893 34.7661 29.0082 35.1859L29.8017 35.4837L33.9393 35.5187L38.0769 35.5536V38.3842C38.0769 41.5609 38.0431 41.7467 37.3667 42.2767L36.958 42.597L22.6204 42.626C13.2482 42.6449 8.07689 42.6159 7.68812 42.542C6.26456 42.2717 4.71098 41.0898 4.06963 39.7894C3.43563 38.5039 3.46159 39.1784 3.46159 23.9803C3.46159 11.9668 3.48409 9.93417 3.62298 9.38623C4.0626 7.65215 5.24439 6.30953 6.94681 5.61031C7.45392 5.40203 7.81068 5.3688 10.123 5.31411L12.7279 5.25243L13.1362 4.93211C14.0788 4.19289 14.0788 2.86638 13.1362 2.12726L12.7278 1.80695L10.231 1.78683C8.50309 1.77282 7.51796 1.81228 7.03129 1.91487ZM31.1295 6.46891C31.6245 7.74007 32.0106 8.7995 31.9874 8.82317C31.9644 8.84685 28.8352 8.85341 25.0335 8.83762L18.1216 8.80906L24.0698 6.45468C27.3413 5.15985 30.0656 4.11331 30.1238 4.12909C30.1819 4.14487 30.6345 5.19786 31.1295 6.46891ZM41.5384 28.4308V31.9921L35.8864 31.9596L30.2344 31.9271L29.67 31.6215C28.9506 31.2318 28.419 30.6842 28.0482 29.9507C27.7968 29.4533 27.7552 29.2366 27.7552 28.4261C27.7552 27.6156 27.7968 27.3989 28.0482 26.9015C28.5344 25.9398 29.4032 25.2098 30.3426 24.9737C30.521 24.9289 33.1132 24.8871 36.1028 24.8808L41.5384 24.8695V28.4308Z" fill="#9EC419"/>
</svg>
