<svg width="72" height="42" viewBox="0 0 72 42" fill="none" xmlns="http://www.w3.org/2000/svg">
<path d="M12.8058 0.199368L12.8501 0.289014C12.667 0.379509 12.4564 0.591914 12.2897 0.839336C12.1218 1.0884 12.0157 1.34725 12.0157 1.52013C12.0157 1.52989 12.0191 1.55482 12.0301 1.5975C12.0405 1.63782 12.0559 1.68748 12.0754 1.74338C12.1144 1.85509 12.1685 1.98756 12.2281 2.11305L12.8058 0.199368ZM12.8058 0.199368L12.8501 0.289012C12.887 0.270801 12.9497 0.250741 13.0697 0.231893C13.1889 0.213169 13.3587 0.196479 13.6059 0.181922C14.1001 0.15282 14.8947 0.132722 16.1946 0.119733C18.7935 0.0937626 23.4049 0.0962556 31.6553 0.11095L50.0174 0.143641L50.4088 0.518117C50.5189 0.623448 50.6288 0.75504 50.7163 0.881606C50.8048 1.00962 50.8635 1.12263 50.8819 1.19355C50.8819 1.19447 50.8823 1.1986 50.8824 1.20724C50.8824 1.21963 50.8817 1.23675 50.88 1.25908C50.8766 1.30364 50.8698 1.36401 50.8594 1.43947C50.8388 1.59013 50.805 1.79589 50.7603 2.04536C50.6711 2.54402 50.5392 3.21359 50.3845 3.95829C50.0751 5.44771 49.6751 7.23486 49.3441 8.55147L49.4411 8.57585L49.3441 8.55148L49.2508 8.92297L49.2198 9.046L49.3467 9.04734L54.8857 9.10597C60.3209 9.16367 60.4416 9.17251 61.7666 9.52736C67.4235 11.0424 71.3806 15.6967 71.883 21.421C71.9197 21.8391 71.9053 22.2799 71.7569 23.2913C71.6084 24.3035 71.3267 25.8807 70.8314 28.5696C70.5181 30.2705 70.208 31.8661 69.9609 33.0665C69.8374 33.6667 69.7297 34.1677 69.6452 34.5334C69.603 34.7163 69.5667 34.8647 69.5373 34.9744C69.5067 35.0888 69.4861 35.1506 69.4764 35.1696L69.5655 35.215L69.4764 35.1696C69.4004 35.3187 69.322 35.4326 69.2263 35.5219C69.1313 35.6105 69.0151 35.6787 68.8583 35.7304C68.5387 35.8357 68.061 35.8698 67.2752 35.8698H65.9004H65.826L65.8047 35.9411L65.5505 36.788L65.6463 36.8167L65.5505 36.788C64.7161 39.5698 61.9893 41.6723 58.9406 41.8751C55.6983 42.0908 52.4163 39.8455 51.4993 36.7886L51.2454 35.9422L51.2239 35.8707L51.1492 35.871L42.0031 35.9055L32.8572 35.9401L32.7828 35.9404L32.7617 36.0118L32.5931 36.5817C32.4717 36.9924 32.2178 37.5454 31.917 38.0834C31.6162 38.6212 31.2729 39.1364 30.9762 39.473C29.3831 41.2802 26.5389 42.2456 24.1585 41.7864C21.5263 41.2787 19.1298 39.1493 18.4043 36.6799L18.1874 35.9416L18.1663 35.8698H18.0915H15.5155C14.3285 35.8698 13.6831 35.864 13.2925 35.8263C13.0982 35.8076 12.9731 35.7814 12.8787 35.7467C12.7861 35.7128 12.7184 35.6691 12.6403 35.6077L12.5785 35.6864L12.6403 35.6077C12.1363 35.2119 11.9621 34.5625 12.2012 33.9909C12.2868 33.7862 12.3698 33.6378 12.4838 33.5249C12.5964 33.4134 12.7465 33.3296 12.978 33.2681C13.4495 33.1428 14.227 33.117 15.6288 33.117H18.0885H18.1606L18.1834 33.0486L18.4769 32.1681C19.0803 30.3573 20.4774 28.7486 22.1532 27.9327L22.1095 27.8428L22.1532 27.9327C22.7649 27.6349 23.2467 27.446 23.7431 27.3302C24.2394 27.2143 24.7547 27.1703 25.4343 27.1666C27.4945 27.1557 29.2536 27.878 30.7108 29.333C31.1424 29.7641 31.5731 30.3454 31.9173 30.9335C32.2623 31.5229 32.5153 32.1104 32.5985 32.5532L32.6968 32.5347L32.5985 32.5532L32.6892 33.0355L32.7045 33.117H32.7874H36.7822H40.777H40.856L40.8743 33.0401L40.9495 32.7237L40.9495 32.7237M12.8058 0.199368L40.9495 32.7237M40.9495 32.7237C40.9909 32.549 42.0968 27.6919 43.4068 21.9309C44.7168 16.1694 46.205 9.65953 46.7137 7.46469C46.9682 6.36691 47.1995 5.34721 47.3673 4.5886C47.4512 4.20935 47.5192 3.89508 47.5663 3.66885C47.5898 3.5558 47.6082 3.46429 47.6208 3.39746C47.6271 3.36411 47.632 3.33631 47.6354 3.31478C47.6383 3.29626 47.6414 3.27477 47.6414 3.25892C47.6414 3.21427 47.6166 3.18394 47.5979 3.16804C47.58 3.15275 47.5595 3.14321 47.5431 3.13687C47.5094 3.12389 47.4645 3.11401 47.4112 3.10559C47.3027 3.08846 47.1351 3.07382 46.8938 3.06101C46.4099 3.03532 45.616 3.01634 44.3746 3.00241C41.891 2.97455 37.6097 2.96685 30.4187 2.96685C29.3472 2.96685 28.34 2.96703 27.3931 2.96721M40.9495 32.7237L27.3931 2.96721M20.1572 6.18771C20.9975 6.56989 21.1959 7.88278 20.5162 8.56151L20.1046 8.97251M20.1572 6.18771L7.09295 6.23486C7.29081 6.20411 7.5856 6.18144 8.05167 6.16505C8.98301 6.13231 10.5824 6.12509 13.4229 6.12348C15.7439 6.12207 17.3591 6.13248 18.4274 6.15853C18.9617 6.17156 19.3579 6.18847 19.6366 6.20964C19.7761 6.22023 19.8847 6.23178 19.9658 6.24419C20.0498 6.25702 20.0957 6.26959 20.1158 6.27872L20.1158 6.27874C20.498 6.45257 20.7419 6.84237 20.8078 7.27835C20.8737 7.71404 20.7587 8.17799 20.4455 8.49074L20.0632 8.87251M20.1572 6.18771C19.888 6.0651 18.0649 6.02066 13.4228 6.02348C7.7433 6.02671 7.01713 6.0523 6.68115 6.26041M20.1572 6.18771L6.7338 6.34542M20.1046 8.97251V8.87251H20.0632M20.1046 8.97251L20.0339 8.90175L20.0632 8.87251M20.1046 8.97251H13.4647H6.82478M20.0632 8.87251H13.4647H6.86615M6.86615 8.87251L6.89544 8.90175L6.82478 8.97251M6.86615 8.87251L6.48384 8.49074C5.86879 7.87658 5.99344 6.80412 6.7338 6.34542M6.86615 8.87251H6.82478V8.97251M6.82478 8.97251L6.41318 8.56151C5.75234 7.90162 5.88612 6.75297 6.68115 6.26041M6.7338 6.34542L6.68115 6.26041M6.7338 6.34542C6.73381 6.34542 6.73381 6.34542 6.73381 6.34542L6.68115 6.26041M27.3931 2.96721C19.951 2.96856 16.2341 2.96924 14.3384 2.87479M27.3931 2.96721L14.3384 2.87479M14.3384 2.87479C13.8046 2.84819 13.4181 2.81416 13.1349 2.77101M14.3384 2.87479L13.1349 2.77101M13.1349 2.77101C12.8505 2.72767 12.6772 2.67608 12.5653 2.61815M13.1349 2.77101L12.5653 2.61815M12.5653 2.61815C12.4583 2.56276 12.4056 2.50068 12.3649 2.42555M12.5653 2.61815L12.3649 2.42555M12.3649 2.42555C12.3432 2.38549 12.3246 2.34126 12.3031 2.28822M12.3649 2.42555L12.3031 2.28822M12.3031 2.28822C12.301 2.28314 12.2989 2.27799 12.2968 2.27276M12.3031 2.28822L12.2968 2.27276M12.2968 2.27276C12.2773 2.22466 12.2554 2.17057 12.2281 2.11309L12.2968 2.27276ZM67.05 33.117H67.1331L67.1483 33.0354L68.1811 27.5071C68.6809 24.8316 68.9385 23.4383 69.0519 22.5923C69.1662 21.7396 69.135 21.4344 69.0577 20.9371C68.6544 18.3414 67.2996 15.9784 65.273 14.3365L65.21 14.4142L65.273 14.3365C64.7324 13.8986 63.9559 13.4355 63.1518 13.0461C62.3477 12.6568 61.5088 12.3376 60.8419 12.191L60.8205 12.2887L60.8419 12.191C59.9985 12.0057 58.7948 11.966 54.2527 11.966H48.6985H48.6205L48.6015 12.0416L48.5063 12.4205C48.4337 12.7093 45.9987 23.3821 43.9326 32.4675L44.0301 32.4897L43.9326 32.4675L43.8127 32.9948L43.785 33.117H43.9103H47.5341H51.1579H51.2323L51.2537 33.0457L51.4328 32.4481C52.1261 30.1347 54.0258 28.1899 56.2919 27.4716C56.9166 27.2736 57.7188 27.1734 58.5248 27.1734C59.3308 27.1734 60.133 27.2736 60.7577 27.4716C63.0238 28.1899 64.9235 30.1347 65.6168 32.4481C65.6597 32.5912 65.6953 32.7063 65.7334 32.7956C65.7718 32.8855 65.817 32.9597 65.8849 33.0132C65.9536 33.0673 66.0347 33.0918 66.1278 33.104C66.2192 33.1159 66.3324 33.117 66.4709 33.117H67.05ZM20.1158 15.2778L20.1158 15.2778C20.498 15.4517 20.7419 15.8415 20.8078 16.2775C20.8737 16.7132 20.7587 17.1771 20.4455 17.4899L20.0632 17.8716H12.0282C11.6172 17.8716 11.2261 17.8717 10.8537 17.8718C7.15782 17.8727 5.31918 17.8732 4.36217 17.7721C3.83317 17.7161 3.59874 17.6308 3.46804 17.5178C3.40392 17.4623 3.3598 17.3958 3.31841 17.3095C3.29135 17.253 3.2679 17.1939 3.24089 17.1259C3.22427 17.084 3.20631 17.0388 3.18534 16.9887C2.93043 16.3794 3.14503 15.7189 3.70949 15.375C3.89562 15.2617 4.07064 15.1934 5.15593 15.158C6.23711 15.1228 8.20093 15.1196 11.9443 15.1193C14.8355 15.1191 16.8198 15.13 18.115 15.1564C18.7628 15.1697 19.2371 15.1867 19.5658 15.2081C19.7302 15.2188 19.8569 15.2305 19.9499 15.2431C20.0468 15.2563 20.0967 15.2692 20.1158 15.2778ZM0.782399 26.7225L0.782366 26.7225C0.291681 26.4992 0.0663104 25.9762 0.104022 25.4449C0.141575 24.9158 0.438738 24.4069 0.960587 24.2133C0.961993 24.2131 0.963948 24.2129 0.966537 24.2126C0.976048 24.2115 0.989999 24.2103 1.00889 24.209C1.04646 24.2065 1.09985 24.204 1.16873 24.2014C1.30628 24.1963 1.50273 24.1912 1.75187 24.1864C2.24999 24.1766 2.95696 24.1675 3.82081 24.1595C5.5484 24.1435 7.90244 24.132 10.4659 24.129C13.9401 24.1249 16.2933 24.1328 17.8123 24.1574C18.5719 24.1697 19.1218 24.1861 19.4984 24.2072C19.6868 24.2178 19.8304 24.2295 19.9347 24.2421C20.0437 24.2554 20.0974 24.2686 20.1158 24.2769L20.1158 24.277C20.498 24.4508 20.7419 24.8406 20.8078 25.2766C20.8737 25.7123 20.7587 26.1762 20.4455 26.489L20.0632 26.8707H10.5955C7.2422 26.8707 4.84016 26.8592 3.24617 26.8337C2.44904 26.821 1.85488 26.8049 1.44521 26.785C1.24024 26.7751 1.08267 26.7643 0.969459 26.7526C0.912786 26.7468 0.868487 26.7409 0.835542 26.7351C0.819094 26.7322 0.806338 26.7294 0.796796 26.727C0.79207 26.7257 0.788503 26.7247 0.785925 26.7238C0.78425 26.7232 0.78322 26.7228 0.78273 26.7226L0.782399 26.7225ZM29.6239 32.549L29.5352 32.5952L29.6239 32.549C29.1632 31.6639 28.3801 30.8745 27.5214 30.4313C27.0713 30.199 26.3967 30.0536 25.7333 30.0057C25.0708 29.9579 24.3994 30.0059 23.9565 30.1754C21.3477 31.1734 20.1752 34.0405 21.3831 36.4906C21.9094 37.558 22.5735 38.1951 23.6957 38.712C25.8621 39.7097 28.5279 38.7069 29.6179 36.4954C29.7631 36.2007 29.8524 35.9664 29.9038 35.669C29.9547 35.3748 29.968 35.0224 29.967 34.4932C29.966 33.9683 29.9514 33.6173 29.9013 33.3303C29.8505 33.0397 29.7637 32.8177 29.6239 32.549ZM62.6587 32.5284C62.2153 31.6267 61.4509 30.8621 60.5131 30.379C60.0505 30.1406 59.5725 30.0455 58.7397 30.0149C58.0798 29.9905 57.6264 30.0064 57.2193 30.1104C56.8107 30.2149 56.4562 30.4062 55.9904 30.7192C53.4923 32.3978 53.2298 35.8393 55.4468 37.8626C57.2405 39.4996 59.8091 39.4996 61.6028 37.8626C62.129 37.3824 62.4934 36.915 62.7256 36.3768C62.9577 35.8388 63.0545 35.2373 63.0569 34.4937C63.0584 34.018 63.0442 33.6972 62.986 33.409C62.9274 33.1192 62.8254 32.8675 62.6587 32.5284Z" fill="#9EC419" stroke="white" stroke-width="0.2"/>
</svg>
